<svg version="1.1" xmlns="http://www.w3.org/2000/svg" viewBox="0 0 647.6565098135198 596.7251562432843" width="647.6565098135198" height="596.7251562432843">
  <!-- svg-source:excalidraw -->
  
  <defs>
    <style class="style-fonts">
      @font-face {
        font-family: "Virgil";
        src: url("https://excalidraw.com/Virgil.woff2");
      }
      @font-face {
        font-family: "Cascadia";
        src: url("https://excalidraw.com/Cascadia.woff2");
      }
    </style>
  </defs>
  <rect x="0" y="0" width="647.6565098135198" height="596.7251562432843" fill="#ffffff"></rect><g stroke-linecap="round"><g transform="translate(455.1399885161529 16.88647747828489) rotate(0 31.001941825236713 33.9532120640453)" fill-rule="evenodd"><path d="M-1.01 0.86 L0.18 69.62 L15.32 72.57 L33.3 74 L52.88 75.14 L63.84 67.51 L62.16 -0.7 L55.56 -6.01 L29.79 -4.76 L6.3 -4.92 L2.61 -0.9 L1.04 -1.4" stroke="none" stroke-width="0" fill="#ced4da" fill-rule="evenodd"></path><path d="M0.29 0.15 C0.38 10.28, -0.53 49.5, -0.42 61.01 C-0.3 72.51, 0.26 67.35, 1.01 69.2 C1.75 71.06, 1.81 71.25, 4.08 72.16 C6.35 73.07, 9.76 74.33, 14.6 74.68 C19.45 75.03, 26.97 74.48, 33.15 74.26 C39.34 74.03, 46.93 74.08, 51.71 73.34 C56.49 72.59, 60.17 70.82, 61.85 69.81 C63.52 68.79, 61.44 68.39, 61.76 67.23 C62.09 66.07, 63.72 73.14, 63.8 62.83 C63.88 52.53, 62.57 16.07, 62.22 5.41 C61.87 -5.25, 62.46 0.45, 61.7 -1.12 C60.94 -2.68, 59.82 -3.2, 57.68 -3.97 C55.53 -4.75, 53.24 -5.44, 48.84 -5.76 C44.44 -6.08, 37.01 -5.72, 31.29 -5.89 C25.57 -6.06, 19.4 -7.24, 14.55 -6.78 C9.69 -6.32, 4.5 -4.17, 2.18 -3.12 C-0.14 -2.08, 1.03 -1.16, 0.62 -0.5 C0.21 0.15, -0.25 0.53, -0.29 0.79 M-1.02 -0.81 C-0.44 9.48, 1.67 51.07, 1.97 62.44 C2.27 73.81, 0.3 66.12, 0.76 67.4 C1.23 68.68, 2.7 69.36, 4.77 70.12 C6.85 70.87, 8.27 71.41, 13.21 71.91 C18.15 72.4, 27.88 73.06, 34.42 73.08 C40.96 73.1, 47.99 72.67, 52.45 72.03 C56.9 71.39, 59.36 69.7, 61.18 69.24 C63 68.78, 63.3 70.35, 63.35 69.28 C63.4 68.2, 61.64 73.24, 61.48 62.79 C61.31 52.33, 61.99 17.33, 62.36 6.54 C62.73 -4.26, 64.46 -0.65, 63.67 -2 C62.89 -3.34, 59.69 -0.79, 57.63 -1.52 C55.58 -2.25, 55.6 -5.59, 51.34 -6.36 C47.08 -7.13, 38.09 -6.19, 32.1 -6.15 C26.11 -6.12, 20.04 -6.74, 15.41 -6.16 C10.78 -5.57, 6.94 -3.6, 4.32 -2.64 C1.7 -1.67, 0.71 -1.07, -0.32 -0.38 C-1.34 0.3, -2.06 1.43, -1.83 1.47" stroke="#000000" stroke-width="1" fill="none"></path></g></g><mask></mask><g stroke-linecap="round"><g transform="translate(455.5664132514096 63.381403331563234) rotate(0 30.577999138895052 3.0623620059579366)"><path d="M0.15 -0.62 C0.35 -0.04, -0.16 2.68, 1.45 3.77 C3.07 4.87, 6.85 5.47, 9.82 5.96 C12.79 6.44, 15.21 6.6, 19.26 6.67 C23.31 6.74, 28.94 6.51, 34.11 6.38 C39.28 6.26, 45.82 6.46, 50.26 5.92 C54.69 5.39, 58.72 4.33, 60.74 3.17 C62.76 2, 62.11 -0.68, 62.39 -1.08 M-1.23 1.67 C-1.22 1.9, -1.4 1.77, 0.4 2.17 C2.21 2.57, 6.33 3.11, 9.6 4.06 C12.87 5.01, 16.1 7.42, 20.02 7.85 C23.94 8.28, 27.88 7.11, 33.14 6.64 C38.39 6.16, 46.81 5.72, 51.53 4.98 C56.24 4.23, 59.82 3.31, 61.42 2.18 C63.02 1.05, 60.69 -1.45, 61.14 -1.82" stroke="#000000" stroke-width="1" fill="none"></path></g></g><mask></mask><g stroke-linecap="round"><g transform="translate(454.72658740192117 39.8076379998283) rotate(0 31.83168662985844 3.058831833613155)"><path d="M-0.62 -0.2 C-0.23 0.41, 0.94 2.76, 2.65 3.81 C4.36 4.86, 7.01 5.47, 9.64 6.08 C12.27 6.69, 14.56 7.42, 18.44 7.47 C22.31 7.52, 27.52 6.65, 32.9 6.38 C38.28 6.11, 45.96 6.55, 50.7 5.83 C55.44 5.11, 59.46 3.15, 61.35 2.06 C63.24 0.96, 61.63 -0.5, 62.05 -0.76 M1.25 -1.35 C1.55 -1.07, 0.88 1.29, 2.22 2.23 C3.57 3.16, 6.56 3.72, 9.32 4.25 C12.07 4.78, 14.49 5.01, 18.76 5.41 C23.03 5.8, 29.38 6.73, 34.95 6.63 C40.52 6.53, 47.64 5.24, 52.2 4.83 C56.77 4.41, 60.34 5.18, 62.35 4.15 C64.36 3.12, 64.21 -0.56, 64.29 -1.34" stroke="#000000" stroke-width="1" fill="none"></path></g></g><mask></mask><g stroke-linecap="round" transform="translate(453.86552562214274 11.08154357249137) rotate(0 31.171262418094273 6.304153313023377)"><path d="M44.59 1.22 C50.38 1.78, 56.12 2.25, 58.99 3.45 C61.87 4.65, 63.34 7.19, 61.85 8.42 C60.36 9.65, 55.58 10.2, 50.05 10.82 C44.52 11.45, 35.44 12.31, 28.67 12.18 C21.9 12.05, 14.16 10.81, 9.43 10.05 C4.7 9.29, 0.81 9.01, 0.28 7.64 C-0.24 6.28, 2.38 3.17, 6.27 1.88 C10.15 0.59, 16.77 0.05, 23.58 -0.1 C30.39 -0.25, 42.58 0.72, 47.13 0.95 C51.67 1.19, 51.22 1.37, 50.84 1.31 M32.26 -0.32 C38.46 -0.53, 46.37 0.92, 51.54 1.72 C56.72 2.53, 62.17 3.36, 63.3 4.52 C64.43 5.68, 62.23 7.52, 58.32 8.69 C54.41 9.87, 46.47 10.9, 39.82 11.59 C33.17 12.28, 24.56 13.26, 18.41 12.83 C12.27 12.4, 5.86 10.44, 2.93 9.01 C0 7.57, -0.76 5.63, 0.84 4.24 C2.45 2.84, 7.18 1.51, 12.56 0.65 C17.93 -0.2, 29.71 -0.76, 33.09 -0.89 C36.46 -1.03, 32.9 -0.49, 32.81 -0.14" stroke="none" stroke-width="0" fill="#fff"></path><path d="M44.28 1.36 C50.06 1.65, 56.24 2.28, 59.11 3.38 C61.98 4.48, 63.03 6.67, 61.48 7.96 C59.93 9.24, 55.37 10.38, 49.8 11.09 C44.22 11.8, 34.64 12.16, 28.03 12.22 C21.43 12.28, 14.88 12.28, 10.19 11.43 C5.49 10.58, 0.7 8.7, -0.15 7.12 C-1 5.55, 1.31 3.25, 5.08 2 C8.85 0.75, 15.14 -0.15, 22.47 -0.38 C29.8 -0.61, 43.66 0.09, 49.06 0.61 C54.47 1.12, 55.13 2.68, 54.89 2.7 M24.06 -0.22 C30.45 -0.62, 40.54 0.67, 46.76 1.24 C52.98 1.81, 58.93 2.1, 61.39 3.18 C63.84 4.26, 63.8 6.18, 61.48 7.7 C59.16 9.22, 53.38 11.5, 47.47 12.3 C41.56 13.09, 32.64 12.59, 26 12.46 C19.36 12.33, 11.74 12.35, 7.64 11.54 C3.54 10.73, 1.81 9.16, 1.43 7.59 C1.05 6.01, 1.48 3.23, 5.38 2.07 C9.27 0.91, 21.8 1, 24.81 0.62 C27.82 0.25, 23.14 0.01, 23.44 -0.18" stroke="#000000" stroke-width="1" fill="none"></path></g><g stroke-linecap="round" transform="translate(483.56625400947803 31.003036378342102) rotate(0 4.568447309659518 4.958163835259057)"><path d="M6.39 -0.17 C7.4 0.04, 7.62 1.56, 8.16 2.62 C8.7 3.68, 9.81 5.23, 9.65 6.2 C9.49 7.17, 8.03 7.81, 7.19 8.45 C6.34 9.09, 5.57 9.92, 4.57 10.04 C3.57 10.16, 1.82 9.67, 1.21 9.17 C0.6 8.66, 1.18 7.94, 0.9 7.01 C0.63 6.07, -0.66 4.7, -0.42 3.57 C-0.19 2.43, 1.11 0.57, 2.3 0.21 C3.5 -0.15, 5.89 1.36, 6.74 1.4 C7.58 1.43, 7.55 0.44, 7.37 0.4 M3.39 -1.37 C4.06 -1.21, 6.02 0.74, 6.73 1.75 C7.45 2.75, 7.51 3.8, 7.67 4.65 C7.84 5.51, 7.96 6.1, 7.7 6.89 C7.44 7.67, 6.62 8.89, 6.11 9.36 C5.59 9.84, 5.45 9.95, 4.61 9.73 C3.77 9.51, 1.93 8.91, 1.08 8.04 C0.23 7.17, -0.4 5.65, -0.5 4.53 C-0.59 3.41, -0.04 2.18, 0.52 1.32 C1.07 0.46, 2.32 -0.32, 2.82 -0.64 C3.31 -0.97, 3.2 -1.02, 3.46 -0.63" stroke="none" stroke-width="0" fill="#868e96"></path><path d="M6.94 0.09 C7.66 0.38, 7.95 1.59, 8.31 2.64 C8.68 3.7, 9.32 5.5, 9.13 6.41 C8.93 7.33, 7.96 7.4, 7.14 8.14 C6.31 8.87, 4.99 10.77, 4.18 10.82 C3.37 10.88, 2.91 9.37, 2.26 8.46 C1.61 7.55, 0.69 6.43, 0.29 5.36 C-0.1 4.29, -0.46 3, -0.1 2.03 C0.25 1.06, 1.28 -0.4, 2.42 -0.43 C3.56 -0.47, 5.69 1.42, 6.74 1.81 C7.79 2.21, 8.85 2.08, 8.74 1.95 M3.26 1.1 C4.11 1.15, 6.42 1.47, 7.22 1.91 C8.02 2.35, 7.86 3.03, 8.05 3.75 C8.24 4.47, 8.44 5.48, 8.37 6.24 C8.3 7, 8.39 7.75, 7.64 8.29 C6.88 8.83, 4.75 9.24, 3.84 9.47 C2.93 9.7, 2.64 10.61, 2.18 9.68 C1.72 8.76, 1.32 5.19, 1.06 3.92 C0.8 2.66, 0.1 2.93, 0.61 2.07 C1.12 1.21, 3.68 -1.14, 4.11 -1.23 C4.54 -1.33, 3.47 1.26, 3.2 1.48" stroke="#000000" stroke-width="1" fill="none"></path></g><g stroke-linecap="round" transform="translate(483.85204734597085 52.34066696366645) rotate(0 4.568447309659518 4.958163835259057)"><path d="M2.67 0.15 C3.54 -0.27, 5.53 0.54, 6.65 0.83 C7.76 1.11, 8.94 1.09, 9.34 1.86 C9.75 2.62, 9.34 4.39, 9.06 5.41 C8.78 6.44, 8.37 7.14, 7.65 8.01 C6.92 8.89, 5.59 10.68, 4.71 10.66 C3.84 10.64, 3.05 8.77, 2.39 7.91 C1.73 7.05, 1.11 6.39, 0.77 5.49 C0.43 4.6, -0.35 3.45, 0.35 2.51 C1.06 1.58, 4.31 0.42, 4.99 -0.11 C5.68 -0.64, 4.58 -0.7, 4.47 -0.66 M5.06 0.39 C6.33 0.63, 8.93 0.92, 9.82 1.7 C10.71 2.49, 10.81 3.99, 10.42 5.08 C10.02 6.17, 8.48 7.31, 7.46 8.24 C6.44 9.18, 5.34 10.65, 4.29 10.69 C3.25 10.72, 1.94 9.4, 1.21 8.44 C0.47 7.47, 0.02 6.02, -0.13 4.88 C-0.27 3.74, -0.15 2.52, 0.35 1.58 C0.86 0.64, 2 -0.52, 2.91 -0.75 C3.81 -0.98, 5.33 -0.13, 5.78 0.19 C6.24 0.51, 5.38 1.21, 5.66 1.15" stroke="none" stroke-width="0" fill="#868e96"></path><path d="M6.15 0.18 C7.03 0.4, 8.22 1.86, 8.79 2.79 C9.37 3.72, 9.94 4.78, 9.59 5.74 C9.23 6.7, 7.4 7.76, 6.67 8.56 C5.94 9.36, 6.13 10.51, 5.21 10.55 C4.29 10.59, 2.09 9.75, 1.15 8.8 C0.22 7.84, -0.27 6.01, -0.4 4.81 C-0.54 3.62, -0.17 2.51, 0.32 1.63 C0.81 0.76, 1.2 -0.43, 2.53 -0.43 C3.85 -0.43, 7.34 1.34, 8.26 1.63 C9.18 1.91, 8.27 1.37, 8.03 1.28 M6.8 0.69 C8.03 0.84, 9.18 0.71, 9.67 1.41 C10.17 2.11, 10.12 3.61, 9.76 4.9 C9.4 6.2, 8.46 8.34, 7.5 9.16 C6.55 9.98, 5.04 9.68, 4.04 9.81 C3.04 9.95, 1.92 10.42, 1.51 9.99 C1.09 9.56, 1.93 8.49, 1.55 7.24 C1.17 5.98, -0.97 3.5, -0.75 2.45 C-0.53 1.4, 1.98 1.38, 2.85 0.92 C3.72 0.47, 3.76 0.06, 4.46 -0.26 C5.16 -0.57, 6.94 -1.12, 7.05 -0.98" stroke="#000000" stroke-width="1" fill="none"></path></g><g stroke-linecap="round" transform="translate(484.3801512714083 75.7554547492733) rotate(357.5021844865888 4.568447309659518 4.958163835259057)"><path d="M5.43 0.64 C6.33 0.99, 8.22 2.02, 8.74 2.78 C9.25 3.54, 8.72 4.24, 8.51 5.19 C8.31 6.14, 8.2 7.66, 7.52 8.47 C6.83 9.27, 5.18 9.79, 4.4 10.02 C3.62 10.26, 3.68 10.37, 2.84 9.88 C2 9.4, -0.18 8.31, -0.64 7.12 C-1.11 5.94, -0.5 3.74, 0.03 2.78 C0.56 1.82, 1.55 1.95, 2.51 1.37 C3.47 0.8, 5.31 -0.53, 5.78 -0.66 C6.26 -0.79, 5.43 0.21, 5.36 0.59 M2.54 1.58 C3.21 1.58, 3.79 1.47, 4.56 1.6 C5.32 1.73, 6.49 1.72, 7.12 2.37 C7.75 3.02, 8.09 4.51, 8.34 5.5 C8.58 6.49, 9.17 7.61, 8.61 8.32 C8.05 9.03, 6.16 9.71, 4.97 9.75 C3.79 9.79, 2.36 9.22, 1.47 8.55 C0.58 7.89, -0.03 6.84, -0.36 5.77 C-0.69 4.71, -0.94 3.18, -0.5 2.16 C-0.05 1.14, 1.71 -0.26, 2.33 -0.33 C2.96 -0.41, 3.35 1.73, 3.25 1.72" stroke="none" stroke-width="0" fill="#868e96"></path><path d="M4.63 0.16 C5.44 0.29, 7.09 1.33, 7.78 1.94 C8.47 2.54, 8.72 2.66, 8.75 3.77 C8.79 4.88, 8.38 7.66, 8.01 8.61 C7.63 9.55, 7.34 9.35, 6.5 9.43 C5.66 9.51, 4.1 9.52, 2.97 9.07 C1.85 8.62, 0.33 7.73, -0.25 6.73 C-0.82 5.73, -0.72 3.9, -0.48 3.07 C-0.23 2.24, 0.03 2.24, 1.21 1.73 C2.4 1.22, 5.78 0.21, 6.62 0.03 C7.46 -0.15, 6.44 0.44, 6.26 0.66 M4.19 1.42 C5.03 1.11, 5.34 1.01, 6.02 1.26 C6.7 1.51, 7.7 2.18, 8.28 2.91 C8.87 3.65, 9.78 4.71, 9.54 5.69 C9.3 6.67, 7.62 7.88, 6.84 8.81 C6.07 9.74, 5.65 11.56, 4.87 11.27 C4.1 10.97, 3.05 8.02, 2.18 7.02 C1.31 6.01, -0.24 6.31, -0.36 5.22 C-0.47 4.14, 0.9 1.15, 1.5 0.51 C2.1 -0.14, 3.09 1.51, 3.24 1.36 C3.4 1.22, 2.36 -0.43, 2.44 -0.34" stroke="#000000" stroke-width="1" fill="none"></path></g><g stroke-linecap="round" transform="translate(297.7815008300598 82.70814168121035) rotate(0 38.044848335422785 71.01705022612232)"><path d="M0 0 C0 0, 0 0, 0 0 M0 0 C0 0, 0 0, 0 0 M0.13 12.04 C3.49 8.17, 6.86 4.31, 10.63 -0.03 M0.13 12.04 C2.66 9.13, 5.19 6.22, 10.63 -0.03 M0.27 24.08 C8.07 15.11, 15.87 6.13, 21.26 -0.07 M0.27 24.08 C7.16 16.15, 14.06 8.22, 21.26 -0.07 M-0.26 36.88 C8.5 26.8, 17.27 16.72, 31.89 -0.1 M-0.26 36.88 C12.06 22.71, 24.38 8.54, 31.89 -0.1 M-0.12 48.92 C14.86 31.68, 29.84 14.45, 42.52 -0.14 M-0.12 48.92 C15.78 30.62, 31.69 12.32, 42.52 -0.14 M0.01 60.96 C21.09 36.71, 42.17 12.46, 53.15 -0.17 M0.01 60.96 C11.34 47.92, 22.68 34.88, 53.15 -0.17 M0.14 73 C13.93 57.14, 27.71 41.29, 63.78 -0.21 M0.14 73 C16.54 54.14, 32.94 35.27, 63.78 -0.21 M0.28 85.04 C22.37 59.63, 44.46 34.22, 74.41 -0.24 M0.28 85.04 C21.7 60.4, 43.12 35.76, 74.41 -0.24 M-0.25 97.84 C29.51 63.6, 59.28 29.36, 81.1 4.25 M-0.25 97.84 C16.79 78.24, 33.83 58.63, 81.1 4.25 M-0.11 109.88 C19.63 87.16, 39.38 64.44, 81.24 16.29 M-0.11 109.88 C18.74 88.19, 37.6 66.49, 81.24 16.29 M0.02 121.92 C16.96 102.43, 33.9 82.94, 81.37 28.33 M0.02 121.92 C30.08 87.34, 60.13 52.77, 81.37 28.33 M0.15 133.96 C20.99 109.99, 41.82 86.02, 80.85 41.13 M0.15 133.96 C18.51 112.84, 36.86 91.73, 80.85 41.13 M2.25 143.74 C23.04 119.82, 43.84 95.9, 80.98 53.17 M2.25 143.74 C25.31 117.21, 48.37 90.68, 80.98 53.17 M12.88 143.7 C28.75 125.45, 44.61 107.2, 81.11 65.21 M12.88 143.7 C35.11 118.14, 57.33 92.57, 81.11 65.21 M23.51 143.67 C38.78 126.1, 54.05 108.54, 81.25 77.25 M23.51 143.67 C37.89 127.12, 52.27 110.58, 81.25 77.25 M34.14 143.63 C44.15 132.13, 54.15 120.62, 80.72 90.05 M34.14 143.63 C50 125.4, 65.85 107.16, 80.72 90.05 M44.77 143.6 C53.84 133.16, 62.91 122.73, 80.86 102.09 M44.77 143.6 C56.37 130.26, 67.96 116.93, 80.86 102.09 M55.4 143.56 C63.46 134.29, 71.52 125.03, 80.99 114.13 M55.4 143.56 C64.34 133.29, 73.27 123.01, 80.99 114.13 M66.03 143.53 C70.23 138.71, 74.42 133.88, 81.12 126.17 M66.03 143.53 C70.67 138.2, 75.3 132.87, 81.12 126.17 M-0.14 141.91 C-0.14 141.91, -0.14 141.91, -0.14 141.91 M-0.14 141.91 C-0.14 141.91, -0.14 141.91, -0.14 141.91 M11.9 141.78 C8.18 138.55, 4.47 135.32, -0.17 131.28 M11.9 141.78 C9.28 139.5, 6.65 137.22, -0.17 131.28 M24.7 142.3 C19.37 137.67, 14.04 133.04, -0.21 120.65 M24.7 142.3 C15.21 134.05, 5.71 125.8, -0.21 120.65 M36.74 142.17 C25.04 132, 13.34 121.83, -0.24 110.02 M36.74 142.17 C22.75 130.01, 8.76 117.85, -0.24 110.02 M48.78 142.04 C37.12 131.9, 25.46 121.77, -0.28 99.39 M48.78 142.04 C30.12 125.81, 11.46 109.59, -0.28 99.39 M60.82 141.9 C37.04 121.23, 13.26 100.56, -0.31 88.76 M60.82 141.9 C40.7 124.42, 20.58 106.93, -0.31 88.76 M72.86 141.77 C56.11 127.21, 39.36 112.65, -0.34 78.13 M72.86 141.77 C49 121.03, 25.14 100.29, -0.34 78.13 M80.37 137.7 C62.56 122.22, 44.75 106.73, 0.38 68.16 M80.37 137.7 C54.49 115.2, 28.61 92.7, 0.38 68.16 M80.34 127.07 C56.16 106.06, 31.99 85.04, 0.34 57.53 M80.34 127.07 C55.07 105.1, 29.79 83.13, 0.34 57.53 M80.31 116.44 C62.31 100.8, 44.31 85.15, 0.31 46.9 M80.31 116.44 C61.96 100.5, 43.62 84.55, 0.31 46.9 M80.27 105.81 C61.6 89.58, 42.92 73.35, 0.27 36.27 M80.27 105.81 C55.27 84.08, 30.26 62.34, 0.27 36.27 M80.24 95.18 C63.07 80.26, 45.91 65.34, 0.24 25.64 M80.24 95.18 C61.99 79.32, 43.75 63.46, 0.24 25.64 M80.2 84.55 C51.47 59.58, 22.75 34.61, 0.2 15.01 M80.2 84.55 C60.83 67.71, 41.46 50.87, 0.2 15.01 M80.17 73.92 C54.49 51.6, 28.81 29.28, 0.17 4.38 M80.17 73.92 C54.91 51.96, 29.65 30.01, 0.17 4.38 M80.13 63.29 C58.83 44.77, 37.52 26.25, 3.15 -3.63 M80.13 63.29 C57.42 43.55, 34.7 23.8, 3.15 -3.63 M80.1 52.66 C61.61 36.59, 43.13 20.52, 15.19 -3.76 M80.1 52.66 C66.98 41.25, 53.85 29.84, 15.19 -3.76 M80.06 42.03 C61.84 26.19, 43.62 10.35, 27.23 -3.89 M80.06 42.03 C68.14 31.66, 56.21 21.3, 27.23 -3.89 M80.03 31.4 C65.73 18.97, 51.44 6.54, 40.03 -3.37 M80.03 31.4 C71.57 24.05, 63.12 16.7, 40.03 -3.37 M80 20.77 C69.3 11.48, 58.61 2.18, 52.07 -3.5 M80 20.77 C72.94 14.64, 65.89 8.51, 52.07 -3.5 M79.96 10.14 C76.77 7.37, 73.58 4.6, 64.11 -3.64 M79.96 10.14 C73.92 4.89, 67.87 -0.37, 64.11 -3.64" stroke="#ced4da" stroke-width="1" fill="none"></path><path d="M0 0 C17.3 0, 34.61 0, 76.09 0 M0 0 C28.53 0, 57.06 0, 76.09 0 M76.09 0 C76.09 30.45, 76.09 60.89, 76.09 142.03 M76.09 0 C76.09 44.19, 76.09 88.38, 76.09 142.03 M76.09 142.03 C50.93 142.03, 25.77 142.03, 0 142.03 M76.09 142.03 C59.25 142.03, 42.42 142.03, 0 142.03 M0 142.03 C0 100.09, 0 58.15, 0 0 M0 142.03 C0 86.13, 0 30.24, 0 0" stroke="#000000" stroke-width="2" fill="none"></path></g><g transform="translate(293.0647880951102 233.90259900702594) rotate(0 42.274078369140625 17.140909622488294)"><text x="0" y="0" font-family="Virgil, Segoe UI Emoji" font-size="27.425455395981277px" fill="#000000" text-anchor="start" style="white-space: pre;" direction="ltr" dominant-baseline="text-before-edge">Server</text></g><g stroke-linecap="round"><g transform="translate(306.9374874956603 98.42073412730173) rotate(0 29.16771705715729 2.2737367544323206e-13)"><path d="M0 0 C9.72 0, 48.61 0, 58.34 0 M0 0 C9.72 0, 48.61 0, 58.34 0" stroke="#000000" stroke-width="2" fill="none"></path></g></g><mask></mask><g stroke-linecap="round"><g transform="translate(306.65863210832424 111.49517664313757) rotate(0 29.16771705715729 2.2737367544323206e-13)"><path d="M0 0 C9.72 0, 48.61 0, 58.34 0 M0 0 C9.72 0, 48.61 0, 58.34 0" stroke="#000000" stroke-width="2" fill="none"></path></g></g><mask></mask><g stroke-linecap="round"><g transform="translate(306.595574445578 124.56961915897531) rotate(0 29.167717057157347 2.2737367544323206e-13)"><path d="M0 0 C9.72 0, 48.61 0, 58.34 0 M0 0 C9.72 0, 48.61 0, 58.34 0" stroke="#000000" stroke-width="2" fill="none"></path></g></g><mask></mask><g stroke-linecap="round"><g transform="translate(306.595574445578 137.64406167481215) rotate(0 29.167717057157347 2.2737367544323206e-13)"><path d="M0 0 C9.72 0, 48.61 0, 58.34 0 M0 0 C9.72 0, 48.61 0, 58.34 0" stroke="#000000" stroke-width="2" fill="none"></path></g></g><mask></mask><g stroke-linecap="round"><g transform="translate(474.27058476287925 26.68688375597975) rotate(0 38.1471887579454 41.75288126690671)" fill-rule="evenodd"><path d="M-1.01 0.86 L-0.94 83.19 L1.98 84.79 L17.64 90.06 L42.4 93.44 L64.72 88.41 L76.23 85.14 L77.6 -2.93 L66.88 -3.49 L35.64 -8.64 L9.73 -3.45 L4.34 -4.62 L0.89 1.3" stroke="none" stroke-width="0" fill="#ced4da" fill-rule="evenodd"></path><path d="M0.29 0.15 C0.39 12.61, -0.49 60.89, -0.37 75 C-0.25 89.11, 0.14 82.55, 1.01 84.79 C1.87 87.03, 2 87.31, 4.82 88.44 C7.63 89.56, 11.91 91.06, 17.9 91.54 C23.9 92.02, 33.19 91.54, 40.79 91.3 C48.39 91.06, 57.65 90.99, 63.49 90.09 C69.33 89.18, 73.74 87.09, 75.83 85.86 C77.93 84.63, 75.67 84.18, 76.06 82.71 C76.44 81.23, 78.06 89.71, 78.14 77.03 C78.22 64.34, 76.89 19.62, 76.52 6.58 C76.16 -6.45, 76.85 0.71, 75.93 -1.17 C75.01 -3.05, 73.6 -3.76, 70.98 -4.72 C68.36 -5.67, 65.67 -6.46, 60.21 -6.9 C54.75 -7.34, 45.28 -7.17, 38.24 -7.37 C31.19 -7.56, 23.85 -8.66, 17.95 -8.06 C12.04 -7.45, 5.68 -4.98, 2.79 -3.72 C-0.1 -2.46, 1.13 -1.26, 0.62 -0.51 C0.1 0.24, -0.25 0.53, -0.29 0.79 M-1.02 -0.81 C-0.43 11.81, 1.72 62.47, 2.02 76.43 C2.31 90.4, 0.18 81.33, 0.76 82.99 C1.35 84.65, 2.89 85.43, 5.51 86.39 C8.14 87.35, 10.42 88.15, 16.51 88.77 C22.6 89.39, 34.11 90.12, 42.06 90.12 C50.02 90.12, 58.71 89.58, 64.23 88.78 C69.75 87.98, 72.93 85.97, 75.17 85.3 C77.4 84.63, 77.54 86.14, 77.65 84.75 C77.75 83.36, 75.98 89.82, 75.82 76.98 C75.65 64.14, 76.32 20.88, 76.66 7.71 C77.01 -5.46, 78.86 -0.39, 77.9 -2.05 C76.95 -3.71, 73.47 -1.35, 70.94 -2.26 C68.41 -3.17, 68.02 -6.6, 62.71 -7.5 C57.39 -8.39, 46.36 -7.64, 39.04 -7.63 C31.73 -7.62, 24.49 -8.17, 18.81 -7.43 C13.12 -6.7, 8.12 -4.41, 4.93 -3.24 C1.75 -2.06, 0.8 -1.17, -0.32 -0.39 C-1.45 0.39, -2.07 1.43, -1.83 1.47" stroke="#000000" stroke-width="1" fill="none"></path></g></g><mask></mask><g stroke-linecap="round"><g transform="translate(474.79451420115424 83.81316741370966) rotate(0 37.761107694692555 3.78298877768313)"><path d="M0.15 -0.62 C0.42 0.06, -0.11 3.12, 1.83 4.41 C3.78 5.7, 8.23 6.5, 11.83 7.12 C15.43 7.75, 18.47 8.03, 23.44 8.16 C28.42 8.29, 35.3 8.06, 41.69 7.9 C48.09 7.75, 56.32 7.93, 61.81 7.24 C67.3 6.54, 72.12 5.13, 74.61 3.73 C77.1 2.33, 76.39 -0.65, 76.75 -1.15 M-1.23 1.67 C-1.16 2.01, -1.36 2.22, 0.78 2.81 C2.92 3.4, 7.7 4.14, 11.61 5.23 C15.51 6.32, 19.35 8.85, 24.2 9.34 C29.05 9.83, 34.24 8.66, 40.72 8.16 C47.2 7.65, 57.32 7.19, 63.08 6.29 C68.84 5.39, 73.22 4.11, 75.29 2.75 C77.36 1.38, 74.97 -1.42, 75.5 -1.89" stroke="#000000" stroke-width="1" fill="none"></path></g></g><mask></mask><g stroke-linecap="round"><g transform="translate(473.76265687865043 54.8491120784866) rotate(0 39.01264522581329 3.777323234128403)"><path d="M-0.62 -0.2 C-0.17 0.52, 0.98 3.2, 3.03 4.44 C5.07 5.69, 8.38 6.5, 11.65 7.25 C14.91 8, 17.81 8.85, 22.62 8.96 C27.42 9.07, 33.88 8.2, 40.48 7.9 C47.09 7.6, 56.46 8.02, 62.25 7.14 C68.04 6.26, 72.86 3.95, 75.22 2.62 C77.58 1.29, 75.91 -0.46, 76.41 -0.84 M1.25 -1.35 C1.61 -0.96, 0.92 1.73, 2.6 2.86 C4.28 3.99, 7.94 4.75, 11.33 5.42 C14.72 6.09, 17.74 6.44, 22.94 6.9 C28.14 7.35, 35.73 8.28, 42.53 8.15 C49.33 8.02, 58.14 6.71, 63.76 6.14 C69.37 5.57, 73.74 5.97, 76.22 4.72 C78.7 3.46, 78.49 -0.52, 78.65 -1.41" stroke="#000000" stroke-width="1" fill="none"></path></g></g><mask></mask><g stroke-linecap="round" transform="translate(472.7047078965684 19.554615130298146) rotate(0 38.29876800932749 7.745637696423984)"><path d="M54.68 1.35 C61.83 2.01, 69.03 2.8, 72.56 4.28 C76.09 5.75, 77.75 8.7, 75.88 10.23 C74 11.75, 68.09 12.63, 61.31 13.44 C54.54 14.25, 43.52 15.22, 35.23 15.06 C26.94 14.91, 17.37 13.49, 11.55 12.52 C5.74 11.54, 0.99 10.89, 0.32 9.22 C-0.36 7.55, 2.78 4.04, 7.53 2.5 C12.28 0.95, 20.41 0.17, 28.82 -0.05 C37.22 -0.27, 52.38 0.88, 57.96 1.16 C63.54 1.45, 62.72 1.68, 62.28 1.64 M39.93 -0.31 C47.59 -0.52, 57.39 1.11, 63.66 2.14 C69.92 3.16, 76.25 4.35, 77.52 5.82 C78.8 7.29, 76.1 9.52, 71.33 10.95 C66.55 12.38, 56.98 13.65, 48.86 14.42 C40.74 15.19, 30.13 16.15, 22.59 15.59 C15.06 15.03, 7.22 12.78, 3.63 11.07 C0.04 9.36, -0.92 7.01, 1.07 5.32 C3.05 3.63, 8.92 1.96, 15.54 0.92 C22.16 -0.11, 36.61 -0.72, 40.77 -0.89 C44.92 -1.06, 40.58 -0.48, 40.47 -0.1" stroke="none" stroke-width="0" fill="#fff"></path><path d="M54.37 1.49 C61.51 1.89, 69.15 2.82, 72.68 4.2 C76.2 5.58, 77.44 8.18, 75.51 9.76 C73.57 11.35, 67.87 12.82, 61.05 13.71 C54.23 14.6, 42.71 15.06, 34.59 15.1 C26.47 15.13, 18.09 14.97, 12.31 13.9 C6.53 12.83, 0.88 10.58, -0.12 8.7 C-1.11 6.82, 1.7 4.13, 6.34 2.62 C10.98 1.12, 18.68 -0.04, 27.7 -0.33 C36.72 -0.61, 53.85 0.3, 60.45 0.89 C67.04 1.48, 67.58 3.17, 67.27 3.21 M29.7 -0.19 C37.49 -0.67, 49.65 0.7, 57.22 1.41 C64.79 2.12, 72.09 2.72, 75.12 4.08 C78.15 5.44, 78.18 7.77, 75.39 9.58 C72.6 11.4, 65.59 14, 58.39 14.96 C51.18 15.92, 40.3 15.5, 32.15 15.33 C24 15.16, 14.6 14.99, 9.48 13.95 C4.36 12.9, 1.87 10.97, 1.43 9.08 C1 7.19, 2.05 4.03, 6.88 2.63 C11.72 1.22, 26.75 1.11, 30.45 0.66 C34.15 0.2, 28.78 0.05, 29.1 -0.12" stroke="#000000" stroke-width="1" fill="none"></path></g><g stroke-linecap="round" transform="translate(509.1966950017909 44.03128281020173) rotate(0 5.613051577080853 6.0918792422278045)"><path d="M7.71 -0.13 C8.92 0.13, 9.39 1.85, 10.06 3.11 C10.73 4.37, 11.92 6.22, 11.74 7.43 C11.55 8.64, 9.97 9.57, 8.97 10.38 C7.97 11.2, 6.93 12.16, 5.71 12.3 C4.49 12.44, 2.45 11.88, 1.66 11.23 C0.86 10.59, 1.27 9.6, 0.94 8.44 C0.61 7.27, -0.66 5.58, -0.33 4.22 C0 2.87, 1.47 0.77, 2.91 0.32 C4.34 -0.13, 7.24 1.47, 8.27 1.53 C9.3 1.59, 9.27 0.71, 9.08 0.69 M4.24 -1.35 C5.12 -1.25, 7.38 0.77, 8.29 1.89 C9.2 3.01, 9.46 4.3, 9.7 5.39 C9.94 6.47, 10.07 7.38, 9.73 8.4 C9.4 9.41, 8.39 10.88, 7.68 11.47 C6.98 12.07, 6.54 12.24, 5.48 11.98 C4.43 11.72, 2.33 10.96, 1.33 9.91 C0.34 8.86, -0.4 7.04, -0.5 5.67 C-0.59 4.31, 0.06 2.78, 0.75 1.73 C1.45 0.68, 3.07 -0.24, 3.67 -0.62 C4.26 -1.01, 4.05 -1, 4.32 -0.59" stroke="none" stroke-width="0" fill="#868e96"></path><path d="M8.34 0.16 C9.27 0.52, 9.79 1.95, 10.26 3.21 C10.74 4.48, 11.44 6.59, 11.2 7.75 C10.96 8.9, 9.85 9.25, 8.85 10.14 C7.85 11.03, 6.26 13.04, 5.22 13.09 C4.18 13.14, 3.45 11.52, 2.63 10.46 C1.81 9.39, 0.74 8, 0.31 6.69 C-0.12 5.38, -0.43 3.77, 0.04 2.59 C0.51 1.42, 1.71 -0.28, 3.11 -0.37 C4.51 -0.46, 7.18 1.58, 8.43 2.05 C9.68 2.53, 10.75 2.58, 10.63 2.46 M4.09 1.12 C5.14 1.11, 7.76 1.49, 8.76 2.05 C9.75 2.6, 9.79 3.52, 10.06 4.46 C10.34 5.41, 10.54 6.74, 10.4 7.72 C10.27 8.71, 10.18 9.72, 9.24 10.39 C8.29 11.05, 5.87 11.53, 4.74 11.73 C3.61 11.93, 3.06 12.68, 2.45 11.57 C1.83 10.47, 1.33 6.61, 1.06 5.1 C0.79 3.59, 0.19 3.55, 0.83 2.5 C1.48 1.45, 4.4 -1.05, 4.93 -1.21 C5.47 -1.37, 4.3 1.29, 4.03 1.52" stroke="#000000" stroke-width="1" fill="none"></path></g><g stroke-linecap="round" transform="translate(509.5478367857245 70.24789709726684) rotate(0 5.613051577080853 6.0918792422278045)"><path d="M3.36 0.22 C4.42 -0.3, 6.73 0.53, 8.05 0.9 C9.37 1.26, 10.78 1.45, 11.29 2.43 C11.81 3.4, 11.46 5.48, 11.13 6.74 C10.81 8.01, 10.26 8.98, 9.36 10.01 C8.47 11.04, 6.86 12.95, 5.76 12.93 C4.66 12.91, 3.59 10.93, 2.76 9.91 C1.93 8.89, 1.16 7.96, 0.78 6.83 C0.4 5.69, -0.37 4.24, 0.49 3.08 C1.35 1.93, 5.08 0.51, 5.95 -0.1 C6.82 -0.72, 5.8 -0.68, 5.69 -0.62 M6.55 0.5 C8.02 0.82, 10.83 1.36, 11.81 2.36 C12.8 3.36, 12.92 5.19, 12.47 6.51 C12.02 7.84, 10.3 9.23, 9.1 10.31 C7.9 11.38, 6.51 12.94, 5.24 12.95 C3.98 12.96, 2.4 11.51, 1.51 10.37 C0.62 9.23, 0.04 7.49, -0.12 6.11 C-0.28 4.72, -0.09 3.2, 0.54 2.06 C1.18 0.92, 2.56 -0.42, 3.68 -0.71 C4.8 -1, 6.7 -0.03, 7.27 0.3 C7.85 0.63, 6.87 1.32, 7.14 1.28" stroke="none" stroke-width="0" fill="#868e96"></path><path d="M7.61 0.27 C8.69 0.57, 10.1 2.27, 10.77 3.42 C11.44 4.56, 12.05 5.94, 11.65 7.14 C11.24 8.33, 9.24 9.66, 8.34 10.6 C7.43 11.55, 7.34 12.79, 6.2 12.81 C5.06 12.84, 2.58 11.88, 1.48 10.76 C0.38 9.63, -0.23 7.51, -0.4 6.08 C-0.56 4.64, -0.12 3.22, 0.49 2.15 C1.1 1.07, 1.69 -0.34, 3.27 -0.38 C4.85 -0.43, 8.87 1.53, 9.97 1.89 C11.08 2.25, 10.18 1.87, 9.93 1.8 M8.12 0.73 C9.56 0.93, 10.96 1, 11.58 1.9 C12.2 2.81, 12.23 4.62, 11.85 6.15 C11.46 7.68, 10.39 10.12, 9.28 11.1 C8.17 12.09, 6.38 11.92, 5.16 12.08 C3.94 12.24, 2.54 12.62, 1.94 12.05 C1.35 11.48, 2.01 10.14, 1.58 8.65 C1.15 7.16, -0.96 4.36, -0.65 3.09 C-0.33 1.82, 2.4 1.58, 3.47 1.02 C4.54 0.47, 4.97 0.11, 5.79 -0.21 C6.61 -0.54, 8.26 -1.08, 8.37 -0.92" stroke="#000000" stroke-width="1" fill="none"></path></g><g stroke-linecap="round" transform="translate(510.1966950017911 99.0166236685732) rotate(357.5021844865888 5.613051577080853 6.0918792422278045)"><path d="M6.71 0.67 C7.82 1.06, 9.96 2.27, 10.61 3.23 C11.26 4.18, 10.81 5.19, 10.6 6.38 C10.39 7.57, 10.17 9.39, 9.33 10.37 C8.49 11.35, 6.58 12.01, 5.58 12.28 C4.57 12.55, 4.35 12.59, 3.32 11.97 C2.29 11.36, -0.06 10.01, -0.6 8.59 C-1.13 7.18, -0.5 4.66, 0.11 3.47 C0.72 2.29, 1.91 2.18, 3.08 1.5 C4.25 0.82, 6.51 -0.48, 7.13 -0.61 C7.75 -0.75, 6.85 0.3, 6.78 0.69 M3.14 1.69 C4 1.57, 4.88 1.44, 5.86 1.64 C6.85 1.83, 8.26 2, 9.02 2.85 C9.78 3.7, 10.19 5.49, 10.42 6.73 C10.65 7.96, 11.11 9.37, 10.39 10.25 C9.68 11.13, 7.53 11.95, 6.12 12.01 C4.7 12.08, 3 11.42, 1.92 10.62 C0.85 9.82, 0.06 8.51, -0.32 7.21 C-0.71 5.91, -0.94 4.06, -0.4 2.82 C0.14 1.58, 2.22 -0.06, 2.93 -0.22 C3.64 -0.39, 3.95 1.84, 3.85 1.85" stroke="none" stroke-width="0" fill="#868e96"></path><path d="M5.74 0.16 C6.76 0.29, 8.7 1.48, 9.55 2.25 C10.39 3.02, 10.77 3.42, 10.84 4.78 C10.9 6.13, 10.42 9.22, 9.92 10.37 C9.42 11.51, 8.9 11.5, 7.84 11.65 C6.79 11.79, 4.93 11.79, 3.6 11.24 C2.27 10.69, 0.54 9.59, -0.14 8.37 C-0.81 7.16, -0.74 5.01, -0.45 3.94 C-0.15 2.87, 0.22 2.59, 1.64 1.95 C3.05 1.31, 6.98 0.28, 8.03 0.1 C9.08 -0.07, 8.11 0.67, 7.93 0.9 M5.03 1.45 C6.08 1.07, 6.69 1.04, 7.57 1.4 C8.44 1.77, 9.63 2.68, 10.3 3.64 C10.97 4.6, 11.89 5.98, 11.58 7.19 C11.26 8.4, 9.4 9.85, 8.43 10.91 C7.46 11.97, 6.76 13.85, 5.76 13.52 C4.76 13.18, 3.46 10.09, 2.44 8.9 C1.42 7.71, -0.24 7.71, -0.36 6.38 C-0.48 5.05, 0.99 1.76, 1.73 0.93 C2.47 0.1, 3.83 1.59, 4.09 1.39 C4.35 1.18, 3.21 -0.4, 3.29 -0.3" stroke="#000000" stroke-width="1" fill="none"></path></g><g transform="translate(444.99093496891294 120.6067652674162) rotate(0 67.42915344238281 11.797580535952449)"><text x="67.42915344238281" y="0" font-family="Virgil, Segoe UI Emoji" font-size="17.4778970902999px" fill="#000000" text-anchor="middle" style="white-space: pre;" direction="ltr" dominant-baseline="text-before-edge">PostgreSQL DB</text></g><g stroke-opacity="0.8" fill-opacity="0.8" transform="translate(13.230354331060369 558.6050225945035) rotate(0 55.027923583984375 14.060066824390447)"><text x="55.027923583984375" y="0" font-family="Virgil, Segoe UI Emoji" font-size="22.022391579294364px" fill="#000000" text-anchor="middle" style="white-space: pre;" direction="ltr" dominant-baseline="text-before-edge">Mobile App</text></g><g stroke-opacity="0.8" fill-opacity="0.8" stroke-linecap="round" transform="translate(10 377.5969810783671) rotate(0 58.25827791504477 89.09825472513927)"><path d="M29.01 -0.17 L92.58 0.94 L99.88 1.89 L108.9 9.19 L114.82 17.96 L118.33 28.69 L114.46 155.84 L115.56 160.92 L109.03 171.34 L101.85 175.27 L86.77 178.11 L22.42 177.63 L16.48 177.35 L7.94 170.65 L0.49 163.64 L-1.23 147.79 L0.18 20.65 L2.82 13.18 L8.99 5.33 L16.04 2.41 L28.03 -1.87" stroke="none" stroke-width="0" fill="#ced4da"></path><path d="M29.13 0 M29.13 0 C50.41 -0.75, 73.79 -0.51, 87.39 0 M29.13 0 C48.08 -0.64, 66.12 0.61, 87.39 0 M87.39 0 C107.03 -0.12, 115.51 7.9, 116.52 29.13 M87.39 0 C104.98 1.82, 114.75 9.34, 116.52 29.13 M116.52 29.13 C117.94 55.8, 118.03 78.99, 116.52 149.07 M116.52 29.13 C116.23 74.05, 116.93 119.38, 116.52 149.07 M116.52 149.07 C118.08 169.2, 107.01 178.73, 87.39 178.2 M116.52 149.07 C114.58 168.43, 108.34 176.64, 87.39 178.2 M87.39 178.2 C72.57 177.02, 57.74 179.93, 29.13 178.2 M87.39 178.2 C73.37 178.86, 58.84 178.4, 29.13 178.2 M29.13 178.2 C8.66 176.59, 1.68 167.82, 0 149.07 M29.13 178.2 C9.43 179.52, 2.2 169.41, 0 149.07 M0 149.07 C1.21 107.74, -0.45 68.84, 0 29.13 M0 149.07 C-0.5 123.63, 0.11 97.82, 0 29.13 M0 29.13 C0.55 8.87, 10.73 0.66, 29.13 0 M0 29.13 C-0.31 9.9, 10.26 1.24, 29.13 0" stroke="#000000" stroke-width="1" fill="none"></path></g><g stroke-opacity="0.8" fill-opacity="0.8" stroke-linecap="round" transform="translate(15.416773688744456 383.84709851531875) rotate(0 52.244192081389826 83.12074570880401)"><path d="M25.95 -1.64 L84.98 0.15 L94.35 3.34 L102.72 10.33 L104.43 16.5 L104.05 24.52 L104.02 147.1 L99.93 155.83 L94.71 164.28 L88.69 163.99 L78.28 166.36 L19.89 165.92 L11.18 163.23 L3.41 154.71 L3.46 150.32 L-1.28 139.85 L-1.25 18.73 L3.44 16.4 L4.58 6.18 L15.28 0.54 L24.25 1.5" stroke="none" stroke-width="0" fill="#fff"></path><path d="M26.12 0 M26.12 0 C39.14 1.11, 53.31 0.59, 78.37 0 M26.12 0 C41.62 -0.64, 58.71 0.02, 78.37 0 M78.37 0 C95.66 -1.01, 102.68 7.12, 104.49 26.12 M78.37 0 C97.61 -1.76, 104.12 6.73, 104.49 26.12 M104.49 26.12 C105.73 69.77, 103.27 113.75, 104.49 140.12 M104.49 26.12 C105.18 59.21, 105.67 91.9, 104.49 140.12 M104.49 140.12 C105.2 157.74, 96.32 164.55, 78.37 166.24 M104.49 140.12 C104.43 159.07, 94.23 165.41, 78.37 166.24 M78.37 166.24 C57.67 167.47, 41.34 165.33, 26.12 166.24 M78.37 166.24 C60.1 166.72, 41.25 165.92, 26.12 166.24 M26.12 166.24 C7.1 167.92, -0.67 157.29, 0 140.12 M26.12 166.24 C10.03 168.44, 0.92 158.49, 0 140.12 M0 140.12 C-1.23 106.3, 0.84 71.92, 0 26.12 M0 140.12 C0.25 108.4, 0.5 77.3, 0 26.12 M0 26.12 C-0.84 9.72, 9.37 -0.27, 26.12 0 M0 26.12 C0.19 9.26, 9.94 0.57, 26.12 0" stroke="#000000" stroke-width="1" fill="none"></path></g><g stroke-opacity="0.8" fill-opacity="0.8" stroke-linecap="round" transform="translate(65.34606715851521 382.3098577282734) rotate(0 3.5938631993016372 3.5938631993016656)"><path d="M3.03 0.45 C3.76 0.36, 4.3 0.6, 4.95 0.69 C5.6 0.78, 6.44 0.44, 6.93 0.98 C7.42 1.52, 7.96 3.08, 7.89 3.95 C7.82 4.81, 7.22 5.52, 6.53 6.16 C5.85 6.8, 4.56 7.6, 3.8 7.78 C3.03 7.95, 2.51 7.76, 1.95 7.21 C1.39 6.65, 0.64 5.47, 0.43 4.44 C0.22 3.42, 0.31 1.67, 0.69 1.06 C1.07 0.45, 2.41 0.99, 2.73 0.77 C3.05 0.54, 2.48 -0.31, 2.61 -0.28 M5.16 -0.76 C6.21 -0.6, 6.6 1.88, 7.04 2.61 C7.47 3.34, 7.8 3.18, 7.77 3.62 C7.74 4.06, 7.54 4.89, 6.84 5.27 C6.14 5.65, 4.18 5.73, 3.57 5.9 C2.95 6.07, 3.76 6.29, 3.18 6.27 C2.6 6.26, 0.35 6.34, 0.09 5.81 C-0.18 5.28, 1.23 3.99, 1.6 3.09 C1.98 2.19, 1.7 0.8, 2.31 0.43 C2.91 0.06, 4.99 0.99, 5.24 0.87 C5.49 0.74, 3.8 -0.02, 3.81 -0.31" stroke="none" stroke-width="0" fill="#fff"></path><path d="M4.08 0.92 C4.61 0.67, 4.95 -0.51, 5.44 -0.15 C5.94 0.22, 6.88 2.24, 7.04 3.1 C7.2 3.96, 6.69 4.25, 6.4 5.02 C6.12 5.79, 6.03 7.42, 5.31 7.71 C4.6 8, 2.89 7.09, 2.1 6.75 C1.32 6.42, 0.96 6.28, 0.6 5.71 C0.24 5.13, -0.2 4.04, -0.04 3.32 C0.12 2.59, 0.93 2.04, 1.55 1.37 C2.16 0.71, 3.04 -0.35, 3.65 -0.66 C4.25 -0.97, 5.26 -0.63, 5.17 -0.48 M3.43 -1.16 C4.2 -1.65, 3.95 0.36, 4.34 0.58 C4.73 0.81, 5.1 -0.29, 5.76 0.2 C6.42 0.68, 8.31 2.56, 8.29 3.49 C8.28 4.41, 6.53 5.03, 5.67 5.76 C4.81 6.5, 3.93 7.73, 3.14 7.9 C2.36 8.08, 1.47 7.27, 0.97 6.82 C0.47 6.38, 0.2 6.12, 0.15 5.23 C0.1 4.35, 0.45 2.09, 0.65 1.49 C0.85 0.9, 1.05 1.88, 1.34 1.68 C1.62 1.48, 2.31 0.68, 2.35 0.28" stroke="#000000" stroke-width="1" fill="none"></path></g><g stroke-opacity="0.8" fill-opacity="0.8" stroke-linecap="round" transform="translate(20.324212844723718 395.8544779384275) rotate(0 46.94059837181453 21.908546361242827)"><path d="M0 0 C0 0, 0 0, 0 0 M0 0 C0 0, 0 0, 0 0 M-0.45 6.65 C0.49 5.29, 2.41 3.84, 5.21 0.02 M-0.23 6.49 C1.78 4.39, 3.59 2.32, 4.64 0 M1.03 12.04 C3.46 6.42, 7.56 4.38, 9.77 -0.08 M0.15 12.71 C3.17 9.27, 5.26 4.67, 10.29 -0.68 M-1.5 17.32 C7.25 11.83, 11.29 3.69, 17.07 1.26 M0.12 17.88 C3.15 13.8, 6.68 9.72, 15.99 0.82 M-1.52 25.06 C6.77 16.74, 15.06 7.99, 20.06 0.08 M0.46 24.45 C4.95 19.06, 9.24 13.52, 20.35 -0.06 M-0.2 31.77 C6.44 23.47, 16.91 13.79, 25.6 2.29 M-0.81 30.21 C5.47 25.18, 10.83 17.92, 25.96 0.81 M-0.74 35.57 C8.99 29.9, 15.6 19.23, 33.52 -0.29 M-0.56 37.58 C12.35 22.57, 23.98 7.95, 32.82 0.72 M-1.69 41.05 C6.22 31.91, 17.58 22.66, 37.6 0.71 M-0.19 42.24 C11.93 29.26, 22.6 16.47, 36.28 1.21 M2.12 47.03 C16.54 29.56, 31.78 11.03, 43.28 -1.28 M2.25 45.58 C15.2 30.86, 26.22 16.59, 42.57 0.24 M6.75 46.67 C14.71 36.28, 24.31 24.49, 48.83 -1.2 M7.08 46.46 C21 30.5, 36.01 14.42, 46.8 -0.54 M11.56 46.28 C27.85 28.58, 43.48 11.09, 55.05 -1.8 M12.26 46.67 C27.1 29.06, 43.31 12.07, 52.58 0.39 M19 48.12 C31.13 29.6, 44.9 13.55, 58.44 0.97 M19 45.37 C31.36 31.45, 42.7 18.33, 57.95 -0.33 M22.96 44.68 C35.92 32.33, 47.45 18.8, 64.9 -1.58 M22.96 46.08 C38.5 28.51, 51.63 11.58, 62.96 -0.76 M27.98 47.31 C39.55 34.63, 50.19 21.88, 66.91 -0.2 M29.31 46.88 C39.66 32.74, 51.84 18.35, 69.71 -0.37 M32.93 44.69 C46.73 33.17, 56.9 20.62, 73.22 0.77 M35.27 45.65 C46.21 31.23, 59.07 18.75, 73.86 0.06 M38.2 47.51 C49.53 37.2, 59.15 26.71, 78.04 2.03 M39.12 46.29 C48.83 35.39, 58 25.13, 78.67 -0.21 M45.4 46.92 C54.95 32.07, 67.05 19.48, 86.74 -2.17 M44.73 45.91 C60.55 28.64, 75.21 11.43, 84.53 0.24 M48.54 47.17 C62.73 31.82, 74.14 15.49, 89.01 -1.44 M50.61 47.09 C64.32 27.82, 80.52 10.65, 90.99 0.29 M53.68 44.13 C71.75 29.81, 86.68 12.46, 95.91 0.05 M56.42 45.05 C66 33.82, 77.78 20.31, 95.63 1.15 M62.19 45.88 C75.55 32.86, 89.25 16.38, 94.42 5.21 M60.03 45.93 C67.3 36.94, 75.32 29.32, 95.49 6.71 M66.38 47.25 C71.59 36.65, 79.38 29.21, 96.3 11.65 M66.02 45.93 C72.49 38.22, 80.17 31.2, 93.72 12.85 M72.72 46.39 C78.59 34.85, 87.27 26.35, 93.43 17.68 M70.72 45.62 C77.77 37.99, 83.73 30.56, 95.8 18.02 M77.49 47.35 C79.73 39.71, 85.52 37.3, 92.85 25.81 M76.77 45.09 C82.37 38.01, 88.68 32.57, 94.43 24.45 M82.02 44.61 C86.8 39.08, 88.36 34.92, 95.83 30.05 M82.1 46.18 C84.15 43.27, 87.3 40.15, 95.41 30.08 M87.98 45.64 C90.56 43.91, 93.03 39.96, 93.8 36.87 M88.07 45.68 C89.71 43.54, 91.39 41.1, 94.7 37.05 M0.19 43.98 C0.19 43.98, 0.19 43.98, 0.19 43.98 M0.19 43.98 C0.19 43.98, 0.19 43.98, 0.19 43.98 M5.59 44.39 C4.3 42.44, 2.28 40.41, -0.86 38.61 M6.02 43.24 C3.76 41.71, 1.47 39.49, -0.54 38.29 M11.51 45.14 C10.53 39.7, 5.64 38.39, 0.96 33.12 M12.07 43.65 C8.53 40.24, 5.74 38.72, -0.11 32.87 M17.01 43.23 C11.51 38.34, 4.36 34.75, 1.11 26.23 M18.96 44.18 C13.39 40.16, 6.32 33.76, 0.02 27.43 M23.19 45.71 C19.28 40.53, 14.62 34.78, 0.16 22.19 M25.14 43.32 C14.64 35.39, 5.03 27.96, -0.73 22.98 M31.8 43.07 C19.56 34.52, 10.75 26.56, -1.91 16.47 M30.81 44.13 C22.65 36.04, 12.25 27.5, -0.26 16.76 M36.86 42.84 C26.77 35.26, 16.49 28.13, 0.77 10.22 M35.38 43.6 C24.64 33.19, 11.54 23.38, -0.65 11.25 M41.02 43.64 C31.2 33.8, 15.11 22.79, -1.42 7.54 M42.74 43.1 C31.92 35.25, 21.83 26.72, -0.01 6.99 M50.69 45.21 C36.43 34.08, 23.11 18.58, -1.11 1.29 M48.29 43.95 C36.32 33.2, 22.84 21.73, 0.86 1.08 M56.73 42.94 C37.9 29.21, 19.46 11.37, 2.7 -3.63 M54.47 44.66 C35.5 27.28, 14.72 8.89, 0.97 -1.94 M61.16 44.36 C50.17 33.48, 37.47 21.46, 10.1 -3.09 M61.27 43.09 C49.97 34.4, 38.97 25.34, 7.44 -2.16 M66.3 45.15 C55.69 34.56, 43.48 25.46, 14.16 -0.35 M66.29 43.06 C53.32 31.07, 40.51 19.95, 13.24 -3.34 M73.3 44.94 C57.84 29.46, 41.86 19.26, 18.45 -0.39 M73.02 43.86 C59.8 32.2, 46.36 19.88, 19.52 -2.54 M79.22 43.26 C60.68 30.43, 41.94 11.49, 27.67 -3.86 M78.84 44.85 C63.11 29.33, 44.85 13.29, 26.11 -2.42 M83.78 44.1 C67.71 26.1, 46.69 8.64, 32.13 -1.28 M85.58 43.65 C66.42 26.93, 46.48 10.14, 32.83 -2.82 M90.04 42.43 C73.22 27.93, 52.66 9.26, 38.87 -3.07 M91.05 43.32 C70.96 25.91, 52.02 7.9, 38.5 -1.06 M94.07 40.84 C80.71 29.25, 69.06 18.81, 44.41 -1.01 M96.55 42.68 C76.76 26.23, 58.62 9.87, 44.46 -2.82 M96.64 34.74 C83.47 26.29, 68.95 12.34, 49.44 -3.7 M95.42 36.14 C81.66 24.15, 66.11 12.69, 51.16 -1.92 M94.46 32.77 C83.18 20.99, 70.14 7.38, 55.95 -0.64 M96.09 31.8 C83.19 20.53, 67.95 8.31, 56.1 -1.68 M96.29 24.94 C85.99 18.18, 78.82 10.02, 61.7 -2.35 M95.08 26.19 C83.39 15.23, 72.42 6.1, 62.19 -1.5 M97.18 21.7 C91.55 16.16, 86.31 12.12, 69.45 -0.45 M95.03 21.06 C87.54 15.21, 81.14 9.11, 69.74 -2.2 M94.87 17.25 C87.55 10.92, 80.8 5.25, 73.55 -3.1 M95.99 15.34 C90.27 11.15, 87.31 8.61, 75 -1.82 M96.24 9.44 C90.78 6.97, 88.5 3.82, 80.77 -0.58 M95.71 10.54 C90.24 5.26, 84.29 1.39, 81.68 -2.47 M94.48 3.66 C92.63 2.43, 87.94 0.06, 86.01 -2.71 M95.08 4.8 C92.35 1.97, 89.41 -1, 86.47 -2.61" stroke="#15aabf" stroke-width="0.5" fill="none"></path><path d="M-0.34 1.91 C30.58 1.54, 62.73 -0.47, 92.28 -0.06 M0.21 0.86 C31.65 -0.21, 64.35 0.16, 93.83 0.05 M92.55 1.83 C92.8 14.01, 93.75 28.92, 92.61 45.62 M94.17 -0.55 C92.52 17.64, 93.12 33.5, 93.6 43.36 M93.94 44.87 C61.57 43.35, 27.44 45.86, 0.22 43.7 M94.67 43.05 C70.29 42.21, 47.8 43.26, 0.24 44.33 M-0.3 44.89 C0.1 29.57, 1.5 16.15, 1.56 0.71 M-0.02 44.49 C-0.79 29.86, 0.56 17.13, 0.27 -0.73" stroke="#000000" stroke-width="1" fill="none"></path></g><g stroke-opacity="0.8" fill-opacity="0.8" stroke-linecap="round" transform="translate(26.662685701955127 448.8126336488491) rotate(0 16.436697746393207 12.796991628974126)"><path d="M0 0 C0 0, 0 0, 0 0 M0 0 C0 0, 0 0, 0 0 M0 5.78 C2.31 3.94, 4.53 1.97, 4.65 0.77 M-0.17 6.61 C1.59 4.58, 3.39 2.02, 4.63 0.54 M0.13 11.76 C2 8.37, 7.44 3.47, 10.58 -0.41 M0.8 12.12 C3.32 8.29, 4.66 5.68, 9.99 0.56 M-1.25 19.91 C4.58 12.93, 7.78 9.51, 16.55 -1.01 M-0.68 18.02 C3.98 12.66, 8.61 8.43, 16.11 0.63 M1.25 23.72 C7.87 17.25, 14.07 7.07, 21.41 -1.59 M0.63 24.04 C6.69 16.63, 12.6 9.22, 21.27 -0.22 M3.92 26.41 C11.09 21.5, 16.89 11, 28.24 -1.69 M2.36 27.37 C8.26 22.04, 11.94 16.18, 26.77 -0.41 M6.31 29.55 C15.56 21.46, 19.79 14.74, 31.7 1.72 M8.32 27.93 C15.56 18.1, 23.19 10.9, 32.71 -0.96 M11.79 25.7 C18.58 21.42, 25.31 12.39, 36.02 2.06 M12.98 27.97 C21.6 17.55, 30.45 7.7, 36.52 2.44 M19.37 27.05 C23.63 22.11, 26.79 17.55, 34.16 8.35 M17.93 28.54 C24.29 19.48, 31 12.38, 35.68 7.45 M24.23 25.87 C28.16 21.99, 30.83 19.99, 33.83 15.44 M24.06 26.64 C26.67 24.56, 29.3 20.99, 34.39 15.22 M29.08 27.71 C31.39 25.29, 33.71 23.27, 34.62 20.98 M29.28 27.32 C31.45 25.19, 34.03 22.05, 35.72 20.48 M0.16 25.73 C0.16 25.73, 0.16 25.73, 0.16 25.73 M0.16 25.73 C0.16 25.73, 0.16 25.73, 0.16 25.73 M5.34 25.22 C4.74 23.88, 3.6 23.55, -0.79 20.58 M5.9 25.6 C3.31 22.97, 0.86 20.89, -0.46 19.99 M13.09 25.34 C9.81 22.14, 6.45 18.34, -0.16 14.98 M12.75 25.07 C8.26 22.05, 3.53 19.49, -0.3 15 M17.49 26.87 C12.62 19.8, 6.89 13.36, 0.74 9.37 M18.45 25.56 C13.15 22.85, 9.81 17.68, 0.03 8.75 M25.6 26.89 C16.24 18.88, 6.71 7.31, 2 3.23 M24.38 25.58 C15.99 17.97, 8.42 10.28, -0.24 4.42 M31.8 24.26 C18.73 14.48, 8.04 7.2, -1.45 1.06 M30.79 26.52 C19.24 15.67, 7.66 4.61, 0.97 -0.36 M35.82 24.28 C25.63 14.55, 14.31 6.22, 5.32 1.54 M35.74 23.05 C24.03 14.86, 14.5 7.23, 7.05 0.61 M32.78 19.71 C27.18 11.59, 18.6 3.84, 12.1 -1.07 M33.7 17.9 C27.92 12.53, 19.77 6.5, 13.19 0.27 M34.53 15.04 C31.5 10.95, 25.19 4.11, 17.25 -2.16 M34.58 12.98 C28.55 9.07, 23.9 4.79, 18.75 -1.02 M35.35 6.97 C30.05 4.73, 26.78 2.98, 23.5 -1.68 M34.5 7.45 C31.78 6, 29.58 2.86, 24.28 -0.32 M34.79 2.36 C33.5 1.55, 32.96 0.78, 30.63 -0.6 M34.59 2.73 C33.4 1.46, 32.24 0.83, 30.71 -0.71" stroke="#fab005" stroke-width="0.5" fill="none"></path><path d="M1.91 0.12 C11.02 1.86, 18.44 -1.55, 32.82 0.86 M0.86 -0.55 C8.1 -0.11, 16.87 -0.12, 32.92 0.49 M34.7 -1.23 C31.56 8.25, 31.18 15.77, 34.68 27.3 M32.33 -0.93 C33.58 4.85, 32.56 10.08, 32.42 26.07 M33.92 25.96 C23.43 24.52, 17.17 25.83, -0.12 24.58 M32.11 25.43 C25.12 26.63, 19.28 26.1, 0.51 25.88 M1.07 25.38 C-0.03 20.93, 0.96 15.46, 0.71 0.21 M0.67 24.92 C-0.15 17.91, 0.71 9.14, -0.73 0.54" stroke="#000000" stroke-width="1" fill="none"></path></g><g stroke-opacity="0.8" fill-opacity="0.8" stroke-linecap="round" transform="translate(79.24776405880004 497.8563820090699) rotate(0 14.852079532085611 10.816218861089624)"><path d="M0 0 C0 0, 0 0, 0 0 M0 0 C0 0, 0 0, 0 0 M0.28 5.89 C1.38 4.11, 3.9 1.94, 4.79 0.22 M-0.39 6.12 C1.33 5.05, 2.1 3.73, 4.73 0.25 M0.28 12.53 C1.86 8.4, 6.5 5.06, 9.18 -1.29 M0.12 12.38 C2.18 8.82, 4.16 7.07, 10.68 -0.57 M-1.24 16.86 C4.06 9.75, 9.85 5.06, 16.08 1.34 M0.83 18 C4.16 13.58, 7.23 9.17, 15.2 0.81 M1.23 23.97 C8.7 14.72, 13.38 10.67, 20.3 -0.26 M0.75 22.35 C8.33 15.02, 13.86 8.49, 21.25 0.29 M8.25 22.87 C12.13 15.93, 18.36 12.23, 25.75 -1.2 M6.79 23.42 C14.17 15.23, 21.55 5.63, 25.72 0.76 M10.34 21.23 C18.89 17.35, 22.87 8.63, 31.84 2.6 M11.49 22.5 C15.03 17.7, 19.55 13.93, 31.43 0.49 M18.1 24.61 C22.3 18.41, 26.84 11.35, 29.35 8.51 M16.83 22.64 C21.06 17.26, 24.93 12.33, 31.11 6.73 M23.81 23.45 C25.49 21.82, 25.59 18.13, 30.99 13.19 M22.4 21.95 C24.58 20.23, 27.39 17.62, 30.16 13.08 M27.93 22.99 C28.64 21.91, 29.78 20.44, 31.49 18.97 M27.69 22.7 C28.75 21.77, 29.99 20.19, 31.06 18.95 M-0.15 21.51 C-0.15 21.51, -0.15 21.51, -0.15 21.51 M-0.15 21.51 C-0.15 21.51, -0.15 21.51, -0.15 21.51 M6.54 21.51 C5.36 19.67, 2.9 18.82, 0.27 15.99 M6.33 21.65 C5.27 20.45, 3.33 19.63, 0.17 16.67 M12.79 19.83 C6.93 18.78, 3.73 15.45, -0.44 9.98 M12.38 20.76 C8.33 18.86, 5.73 16.69, -0.08 10.93 M17.39 21.3 C12.26 14.48, 4.21 11.96, 0.17 7.08 M18.72 21.13 C13.53 16.76, 8.01 13.08, 1.14 6.42 M23.3 21.34 C16.09 12.38, 6.76 5.27, -1.89 1.62 M24.34 21.09 C16.9 15.44, 10.7 9.64, 0.33 0.21 M31.78 22.61 C20.8 15.11, 14.99 8.29, 4.02 -1.1 M31.25 21.28 C20.22 13.03, 7.73 2.37, 3.13 -3.52 M29.99 17.76 C23.86 7.61, 13.23 3.92, 8.08 -2.51 M29.97 15.78 C26 11.66, 19.89 7.12, 8.4 -2.05 M28.69 12.56 C22.79 7.46, 17.37 -0.7, 14.65 -3.88 M30.89 10.82 C26.32 5.95, 20.84 2.86, 14.51 -3.68 M30.43 5.3 C26.94 3.73, 25.8 1.41, 21.78 -3.05 M30.2 5.38 C27.37 3.75, 24.76 0.95, 21.12 -3.12" stroke="#fab005" stroke-width="0.5" fill="none"></path><path d="M-0.09 -1.02 C9.11 -1.54, 22.37 -1.46, 27.77 -1.05 M-0.39 0.49 C9.45 -0.09, 19.07 -0.58, 29.79 0.53 M30.45 -1.41 C31.74 7.78, 29.35 14.68, 27.88 23.04 M29.04 -0.24 C29.38 9.06, 29.69 17, 28.99 22.42 M29.31 23.34 C18.85 19.7, 6.43 19.82, 1.59 20.85 M29.99 22.15 C23.17 22.07, 16.63 20.67, 0.15 22.08 M-1.44 22.35 C1.13 12.48, -0.06 3.19, 1.53 1.34 M0.42 22 C-0.07 13.32, -0.5 6.18, 0.84 -0.4" stroke="#000000" stroke-width="1" fill="none"></path></g><g stroke-opacity="0.8" fill-opacity="0.8" transform="translate(65.57671573334994 446.4988128126897) rotate(0 26.220458984375 21.39234589315265)"><text x="0" y="0" font-family="Virgil, Segoe UI Emoji" font-size="3.468382852317293px" fill="#495057" text-anchor="start" style="white-space: pre;" direction="ltr" dominant-baseline="text-before-edge">Lorem ipsum dolor sit amet, </text><text x="0" y="4.753854642922811" font-family="Virgil, Segoe UI Emoji" font-size="3.468382852317293px" fill="#495057" text-anchor="start" style="white-space: pre;" direction="ltr" dominant-baseline="text-before-edge">consectetur adipiscing elit,sed</text><text x="0" y="9.507709285845621" font-family="Virgil, Segoe UI Emoji" font-size="3.468382852317293px" fill="#495057" text-anchor="start" style="white-space: pre;" direction="ltr" dominant-baseline="text-before-edge"> do eiusmod tempor incididunt</text><text x="0" y="14.261563928768432" font-family="Virgil, Segoe UI Emoji" font-size="3.468382852317293px" fill="#495057" text-anchor="start" style="white-space: pre;" direction="ltr" dominant-baseline="text-before-edge"> ut labore et dolore magna</text><text x="0" y="19.015418571691242" font-family="Virgil, Segoe UI Emoji" font-size="3.468382852317293px" fill="#495057" text-anchor="start" style="white-space: pre;" direction="ltr" dominant-baseline="text-before-edge"> aliqua. Ut enim ad miveniam,</text><text x="0" y="23.769273214614053" font-family="Virgil, Segoe UI Emoji" font-size="3.468382852317293px" fill="#495057" text-anchor="start" style="white-space: pre;" direction="ltr" dominant-baseline="text-before-edge"> quis nostrud exercitaullamco </text><text x="0" y="28.523127857536863" font-family="Virgil, Segoe UI Emoji" font-size="3.468382852317293px" fill="#495057" text-anchor="start" style="white-space: pre;" direction="ltr" dominant-baseline="text-before-edge">laboris nisi ut aliquip ex ea </text><text x="0" y="33.276982500459674" font-family="Virgil, Segoe UI Emoji" font-size="3.468382852317293px" fill="#495057" text-anchor="start" style="white-space: pre;" direction="ltr" dominant-baseline="text-before-edge">ommodo consequat. Duis aute </text><text x="0" y="38.030837143382485" font-family="Virgil, Segoe UI Emoji" font-size="3.468382852317293px" fill="#495057" text-anchor="start" style="white-space: pre;" direction="ltr" dominant-baseline="text-before-edge">irure dolor in reprehenderit i</text></g><g stroke-opacity="0.8" fill-opacity="0.8" transform="translate(22.39586939346691 481.3379366733533) rotate(0 26.220458984375 21.39234589315265)"><text x="0" y="0" font-family="Virgil, Segoe UI Emoji" font-size="3.468382852317293px" fill="#495057" text-anchor="start" style="white-space: pre;" direction="ltr" dominant-baseline="text-before-edge">Lorem ipsum dolor s, </text><text x="0" y="4.753854642922811" font-family="Virgil, Segoe UI Emoji" font-size="3.468382852317293px" fill="#495057" text-anchor="start" style="white-space: pre;" direction="ltr" dominant-baseline="text-before-edge">consectetur adipng d</text><text x="0" y="9.507709285845621" font-family="Virgil, Segoe UI Emoji" font-size="3.468382852317293px" fill="#495057" text-anchor="start" style="white-space: pre;" direction="ltr" dominant-baseline="text-before-edge"> do eiusmopor incididunt</text><text x="0" y="14.261563928768432" font-family="Virgil, Segoe UI Emoji" font-size="3.468382852317293px" fill="#495057" text-anchor="start" style="white-space: pre;" direction="ltr" dominant-baseline="text-before-edge">ut labore et dolore magna</text><text x="0" y="19.015418571691242" font-family="Virgil, Segoe UI Emoji" font-size="3.468382852317293px" fill="#495057" text-anchor="start" style="white-space: pre;" direction="ltr" dominant-baseline="text-before-edge">aliqua. Ut enim ad miveniam,</text><text x="0" y="23.769273214614053" font-family="Virgil, Segoe UI Emoji" font-size="3.468382852317293px" fill="#495057" text-anchor="start" style="white-space: pre;" direction="ltr" dominant-baseline="text-before-edge">quis nostrud exercitaullamco </text><text x="0" y="28.523127857536863" font-family="Virgil, Segoe UI Emoji" font-size="3.468382852317293px" fill="#495057" text-anchor="start" style="white-space: pre;" direction="ltr" dominant-baseline="text-before-edge">laboris nisi ut aliquip ex ea </text><text x="0" y="33.276982500459674" font-family="Virgil, Segoe UI Emoji" font-size="3.468382852317293px" fill="#495057" text-anchor="start" style="white-space: pre;" direction="ltr" dominant-baseline="text-before-edge">ommodo consequat. Duis aute </text><text x="0" y="38.030837143382485" font-family="Virgil, Segoe UI Emoji" font-size="3.468382852317293px" fill="#495057" text-anchor="start" style="white-space: pre;" direction="ltr" dominant-baseline="text-before-edge"></text></g><g stroke-linecap="round" transform="translate(21.222379464516393 525.5920873272194) rotate(0 46.94059837181453 7.542825910235194)"><path d="M0.53 1.78 C0.53 1.78, 0.53 1.78, 0.53 1.78 M0.53 1.78 C0.53 1.78, 0.53 1.78, 0.53 1.78 M0.27 8.18 C1.82 6.92, 2.65 5.02, 5.52 2.14 M0.27 8.18 C2.36 5.58, 4.22 3.77, 5.52 2.14 M1.32 13.07 C4.31 10.74, 7.67 4.5, 11.16 1.75 M1.32 13.07 C4.47 9.01, 8.57 5.8, 11.16 1.75 M4.34 15.69 C5.52 13.85, 10.28 9.22, 16.15 2.11 M4.34 15.69 C6.01 13.4, 10.03 10.08, 16.15 2.11 M9.98 15.3 C11.01 10.74, 15.5 9.98, 21.79 1.72 M9.98 15.3 C13.25 11.37, 16.82 7.98, 21.79 1.72 M14.97 15.66 C19.13 12.22, 22.86 9.91, 26.78 2.08 M14.97 15.66 C18.65 11.91, 22.9 6.46, 26.78 2.08 M20.61 15.27 C24.74 8.66, 30.01 6.71, 32.42 1.68 M20.61 15.27 C25.08 9.98, 28.71 6.45, 32.42 1.68 M25.6 15.63 C28.39 13.11, 32.76 9.07, 37.41 2.04 M25.6 15.63 C27.85 12.22, 30.91 10.56, 37.41 2.04 M30.58 15.99 C35.42 12, 37.1 8.6, 43.05 1.65 M30.58 15.99 C33.98 12.39, 35.88 8.84, 43.05 1.65 M36.23 15.59 C41.44 12.37, 45.41 7.09, 48.04 2.01 M36.23 15.59 C40.97 10.5, 44.95 5.87, 48.04 2.01 M41.21 15.95 C43.51 10.85, 48.1 7.63, 53.68 1.61 M41.21 15.95 C46.07 10.06, 51.95 4.78, 53.68 1.61 M46.86 15.56 C48.52 13.77, 53.49 8.27, 58.67 1.97 M46.86 15.56 C50.7 10.76, 56.1 4.72, 58.67 1.97 M51.84 15.92 C55.06 12.7, 57.07 10.85, 64.31 1.58 M51.84 15.92 C55.3 12.83, 59.03 8.21, 64.31 1.58 M57.49 15.52 C59.61 9.99, 65.84 8.03, 69.3 1.94 M57.49 15.52 C61.84 10.95, 65.78 7.26, 69.3 1.94 M62.47 15.88 C66.26 10.69, 72.11 5.44, 74.94 1.54 M62.47 15.88 C66.39 10.33, 71.84 6.02, 74.94 1.54 M68.12 15.49 C71.43 10.19, 78.29 4.37, 79.93 1.9 M68.12 15.49 C71.19 12.11, 73.52 8.82, 79.93 1.9 M73.1 15.85 C78.37 11.42, 81.36 6.29, 85.57 1.51 M73.1 15.85 C77.16 10.43, 82.04 6.02, 85.57 1.51 M78.75 15.45 C81.81 11.15, 83.33 9.39, 91.21 1.11 M78.75 15.45 C81.57 10.99, 86.43 7.67, 91.21 1.11 M83.73 15.81 C88.82 12.27, 92.82 6.49, 94.89 2.98 M83.73 15.81 C87.56 11.8, 91.82 7.09, 94.89 2.98 M89.38 15.42 C90.99 13.01, 93.73 11.12, 94.63 9.38 M89.38 15.42 C90.86 13.79, 92.45 12, 94.63 9.38 M0.95 14.15 C0.95 14.15, 0.95 14.15, 0.95 14.15 M0.95 14.15 C0.95 14.15, 0.95 14.15, 0.95 14.15 M5.84 13.1 C4.79 11.66, 3.26 10.37, 1.31 9.16 M5.84 13.1 C4.3 11.33, 2.63 10.29, 1.31 9.16 M11.48 12.7 C9.03 10.32, 6.89 9.8, 1.67 4.18 M11.48 12.7 C8.67 9.9, 5.32 8.04, 1.67 4.18 M17.88 12.97 C11.14 9.76, 5.65 3.59, 2.79 -0.16 M17.88 12.97 C12.45 7.26, 6.86 2.89, 2.79 -0.16 M24.28 13.23 C19.39 10.28, 11.86 5.39, 6.16 -2.52 M24.28 13.23 C18.4 9.42, 13.06 3.75, 6.16 -2.52 M29.92 12.83 C25.27 8.07, 21.34 5.61, 11.81 -2.91 M29.92 12.83 C24.35 8.69, 17.15 2.23, 11.81 -2.91 M36.32 13.09 C32.82 11.04, 29.03 5.28, 18.21 -2.65 M36.32 13.09 C32.06 9.51, 28.14 5.99, 18.21 -2.65 M41.96 12.7 C36.73 9.23, 32.79 7.62, 24.6 -2.39 M41.96 12.7 C37.81 8.63, 33.77 5.98, 24.6 -2.39 M48.36 12.96 C46.19 8.68, 39.01 7.42, 30.25 -2.78 M48.36 12.96 C43.25 9.61, 39.18 4.63, 30.25 -2.78 M54.76 13.22 C49.99 10.26, 46.7 3.55, 36.64 -2.52 M54.76 13.22 C47.22 6.15, 39.69 -0.11, 36.64 -2.52 M60.4 12.83 C54.32 7.11, 50.61 2.52, 42.29 -2.92 M60.4 12.83 C54.87 6.44, 47.91 1.44, 42.29 -2.92 M66.8 13.09 C58.15 8.52, 51.53 0.87, 48.68 -2.66 M66.8 13.09 C61.11 8.69, 55.96 3.81, 48.68 -2.66 M72.44 12.69 C64.76 7.33, 58.11 2.7, 55.08 -2.39 M72.44 12.69 C67.93 8.01, 63.05 3.6, 55.08 -2.39 M78.84 12.96 C75.39 9.38, 70 3.31, 60.73 -2.79 M78.84 12.96 C71.69 7.55, 63.73 0.28, 60.73 -2.79 M85.24 13.22 C80.22 7.87, 78.2 4.81, 67.12 -2.53 M85.24 13.22 C81.5 9.79, 76.83 6.41, 67.12 -2.53 M91.63 13.48 C85.87 8.89, 82.94 7.21, 72.77 -2.92 M91.63 13.48 C83.9 6.4, 76.56 0, 72.77 -2.92 M94.26 10.46 C90.78 4.56, 83.62 0.82, 79.16 -2.66 M94.26 10.46 C91.3 6.66, 87.18 3.15, 79.16 -2.66 M94.62 5.47 C92.28 2.89, 90.39 0.51, 85.56 -2.4 M94.62 5.47 C92.32 2.66, 89.56 1.12, 85.56 -2.4" stroke="#15aabf" stroke-width="0.5" fill="none"></path><path d="M3.77 0 M3.77 0 C35.48 -0.78, 68.61 -0.38, 90.11 0 M3.77 0 C32.28 0.02, 60.76 0.27, 90.11 0 M90.11 0 C92.87 -0.53, 93.11 1.56, 93.88 3.77 M90.11 0 C94.24 -2.08, 92.23 2.39, 93.88 3.77 M93.88 3.77 C94.04 6.64, 93.33 8.56, 93.88 11.31 M93.88 3.77 C93.86 6.85, 94.18 9.64, 93.88 11.31 M93.88 11.31 C94.62 14.09, 93.77 14.34, 90.11 15.09 M93.88 11.31 C94.03 13.33, 90.87 15.04, 90.11 15.09 M90.11 15.09 C55.14 16.24, 25.39 14.8, 3.77 15.09 M90.11 15.09 C56.49 15.94, 24.16 15.02, 3.77 15.09 M3.77 15.09 C0.12 15.2, 1.86 12.4, 0 11.31 M3.77 15.09 C3.52 15.94, -0.7 13.75, 0 11.31 M0 11.31 C-0.39 9.47, -0.01 8.64, 0 3.77 M0 11.31 C-0.17 8.86, -0.29 6.06, 0 3.77 M0 3.77 C1.91 2.24, -0.53 -0.91, 3.77 0 M0 3.77 C-0.62 2.77, 0.86 -1, 3.77 0" stroke="#000000" stroke-width="1" fill="none"></path></g><g stroke-linecap="round"><g transform="translate(146.11749803635678 325.8526209519674) rotate(0 27.367860984930957 29.270215731041276)" fill-rule="evenodd"><path d="M0.98 0.49 L2.05 59.53 L10.61 63.28 L27.82 63.87 L44.51 63 L53.08 60.53 L52.9 0.31 L46.06 -2.26 L24.65 -7.34 L5.76 -2.81 L0.46 0.96" stroke="none" stroke-width="0" fill="#ced4da" fill-rule="evenodd"></path><path d="M0.24 -0.56 C0.25 8.27, -0.11 43.66, -0.13 53.6 C-0.15 63.54, -0.33 57.81, 0.1 59.07 C0.53 60.33, 0.49 60.25, 2.46 61.14 C4.42 62.04, 7.3 63.86, 11.9 64.43 C16.49 64.99, 24.65 64.6, 30.03 64.54 C35.41 64.47, 40.4 64.75, 44.18 64.02 C47.96 63.28, 51.15 60.91, 52.71 60.12 C54.26 59.32, 53.42 60.34, 53.51 59.27 C53.6 58.2, 52.95 63.01, 53.23 53.71 C53.51 44.41, 54.87 12.59, 55.17 3.45 C55.46 -5.69, 55.94 -0.06, 55 -1.14 C54.06 -2.23, 51.58 -2.39, 49.51 -3.07 C47.44 -3.75, 46.63 -4.76, 42.59 -5.23 C38.56 -5.69, 30.09 -5.81, 25.31 -5.84 C20.52 -5.87, 17.57 -5.91, 13.88 -5.42 C10.19 -4.92, 5.4 -3.74, 3.19 -2.85 C0.98 -1.96, 0.95 -0.39, 0.6 -0.07 C0.25 0.26, 1.2 -0.91, 1.09 -0.9 M-1.1 1.76 C-1.25 10.18, -1.32 42.01, -1.24 51.78 C-1.16 61.55, -1.25 58.69, -0.62 60.39 C0.01 62.09, 0.13 61.19, 2.52 61.97 C4.92 62.76, 9.45 64.86, 13.76 65.11 C18.06 65.36, 23.21 63.84, 28.35 63.48 C33.49 63.12, 40.71 63.64, 44.58 62.96 C48.44 62.28, 49.78 60.19, 51.54 59.4 C53.3 58.61, 54.84 59.25, 55.16 58.22 C55.47 57.19, 53.28 62.28, 53.42 53.23 C53.56 44.17, 55.87 12.51, 56 3.91 C56.12 -4.7, 55.29 2.93, 54.16 1.6 C53.04 0.28, 51.35 -2.78, 49.27 -4.03 C47.18 -5.27, 45.67 -5.47, 41.64 -5.89 C37.62 -6.31, 30.08 -6.77, 25.1 -6.53 C20.13 -6.29, 15.56 -5.16, 11.78 -4.47 C7.99 -3.78, 4.41 -3.2, 2.39 -2.41 C0.37 -1.62, -0.01 0.06, -0.36 0.28 C-0.71 0.49, 0.15 -0.77, 0.27 -1.12" stroke="#000000" stroke-width="1" fill="none"></path></g></g><mask></mask><g stroke-linecap="round" transform="translate(146.23165064747593 320.38548560162997) rotate(0 27.00314634614608 5.461183195496631)"><path d="M32.69 0.73 C37.94 0.91, 43.89 1.74, 47.35 2.7 C50.81 3.66, 53.67 5.52, 53.46 6.49 C53.24 7.46, 49.97 7.76, 46.07 8.51 C42.16 9.25, 35.72 10.76, 30.03 10.98 C24.34 11.2, 16.78 10.47, 11.9 9.81 C7.02 9.16, 2.47 8.06, 0.75 7.06 C-0.96 6.07, -0.49 5.05, 1.63 3.85 C3.75 2.64, 8.04 0.54, 13.48 -0.19 C18.91 -0.91, 30.58 -0.48, 34.25 -0.51 C37.91 -0.53, 35.44 -0.54, 35.46 -0.33 M32.92 0.37 C38.5 0.5, 45.23 2.04, 48.69 2.74 C52.15 3.45, 54.07 3.3, 53.69 4.6 C53.3 5.91, 50.64 9.47, 46.39 10.57 C42.14 11.67, 34.12 11.32, 28.18 11.21 C22.24 11.11, 15.1 10.83, 10.76 9.95 C6.42 9.08, 3.45 7.27, 2.14 5.97 C0.83 4.67, 0.84 2.8, 2.89 2.13 C4.94 1.46, 9.32 2.49, 14.42 1.94 C19.52 1.38, 30.49 -1.06, 33.47 -1.22 C36.46 -1.37, 32.27 0.84, 32.32 1.01" stroke="none" stroke-width="0" fill="#fff"></path><path d="M33.14 -0.28 C38.46 -0.01, 44.65 1.68, 48.27 2.69 C51.88 3.71, 55.21 4.63, 54.85 5.8 C54.49 6.97, 50.31 8.95, 46.12 9.7 C41.93 10.45, 35.48 10.15, 29.71 10.29 C23.93 10.43, 16.38 11.09, 11.45 10.54 C6.53 9.98, 1.56 8.29, 0.16 6.94 C-1.23 5.59, 0.46 3.62, 3.1 2.43 C5.73 1.23, 10.64 0.17, 15.98 -0.21 C21.32 -0.6, 31.52 0.08, 35.12 0.09 C38.73 0.1, 37.79 -0.24, 37.63 -0.16 M37.13 1.24 C42.41 1.67, 48.67 3.5, 51.16 4.4 C53.66 5.3, 53.47 5.63, 52.11 6.67 C50.75 7.7, 47.41 9.73, 42.99 10.6 C38.58 11.47, 31.54 12.3, 25.63 11.86 C19.72 11.42, 11.86 9.09, 7.54 7.98 C3.22 6.87, 0.3 6.16, -0.29 5.22 C-0.87 4.28, 0.79 3.29, 4.02 2.33 C7.25 1.38, 13.35 -0.05, 19.08 -0.53 C24.8 -1.02, 35.12 -0.55, 38.35 -0.56 C41.58 -0.56, 38.56 -0.61, 38.47 -0.57" stroke="#000000" stroke-width="1" fill="none"></path></g><g stroke-linecap="round" transform="translate(178.3346949766514 336.8368763005773) rotate(0 8.39806484993656 9.765191685972724)"><path d="M9.58 1.8 L17.36 10.12 L10.98 17.55 L0.4 8.86" stroke="none" stroke-width="0" fill="#868e96" fill-rule="evenodd"></path><path d="M9.43 1.25 C11.19 3.27, 14.08 6.76, 15.73 9.62 M8.4 0.55 C11.23 2.28, 12.65 4.52, 16.72 9.81 M16.8 9.31 C15.87 13.13, 13.13 15.29, 10.19 20.28 M17.15 9.94 C14.67 12.43, 12.87 15.28, 9.41 19.96 M8.77 19.93 C6.46 15.6, 4.05 13.58, 0.64 9.33 M8.8 18.98 C6.37 16.05, 3.95 14.36, -0.45 10.39 M-0.79 10.61 C2.89 7.31, 5.98 3.16, 10.07 -0.63 M-0.39 9.77 C2.17 7.45, 3.34 6.17, 8.89 -0.12" stroke="#000000" stroke-width="1" fill="none"></path></g><g stroke-linecap="round" transform="translate(168.96011095811593 366.5230590259347) rotate(0 8.983976351094924 8.593368683656024)"><path d="M12.55 0.33 C14.12 1, 15.82 3.79, 16.61 5.59 C17.41 7.39, 17.72 9.25, 17.32 11.12 C16.91 13, 15.69 15.92, 14.16 16.86 C12.64 17.79, 10.17 17.19, 8.17 16.73 C6.17 16.28, 3.6 15.34, 2.14 14.14 C0.68 12.94, -0.54 11.52, -0.6 9.55 C-0.66 7.59, 0.49 3.77, 1.77 2.34 C3.06 0.91, 5.18 1.29, 7.11 0.98 C9.04 0.67, 12.19 0.3, 13.36 0.49 C14.52 0.68, 14.04 1.89, 14.1 2.12 M11.47 1.64 C13.22 2.21, 15.75 3.84, 16.89 5.42 C18.02 7.01, 18.81 9.31, 18.29 11.16 C17.76 13, 15.58 15.59, 13.76 16.48 C11.93 17.36, 9.41 16.66, 7.34 16.47 C5.28 16.29, 2.81 16.62, 1.38 15.37 C-0.04 14.12, -1.14 10.91, -1.2 8.98 C-1.26 7.06, -0.52 5.15, 1.01 3.84 C2.54 2.53, 6.2 1.75, 7.97 1.12 C9.73 0.49, 10.57 -0.14, 11.62 0.07 C12.66 0.28, 14.07 2.25, 14.24 2.37" stroke="none" stroke-width="0" fill="#868e96"></path><path d="M8.07 -0.06 C9.73 -0.25, 11.09 1.14, 12.59 2.13 C14.09 3.12, 16.33 4.43, 17.07 5.88 C17.8 7.32, 17.72 9.13, 17.01 10.8 C16.3 12.47, 14.5 14.82, 12.79 15.9 C11.07 16.98, 8.47 17.52, 6.74 17.3 C5.01 17.09, 3.49 15.9, 2.42 14.6 C1.35 13.31, 0.25 11.52, 0.33 9.54 C0.41 7.56, 1.55 4.19, 2.88 2.71 C4.2 1.24, 7.22 1.17, 8.28 0.7 C9.33 0.23, 9.14 -0.13, 9.21 -0.09 M8.15 1.25 C9.72 1.02, 11.85 0.14, 13.66 1.02 C15.48 1.9, 18.54 4.79, 19.03 6.54 C19.53 8.29, 17.85 9.75, 16.62 11.51 C15.4 13.27, 13.39 16.21, 11.68 17.11 C9.96 18.01, 7.89 17.6, 6.35 16.9 C4.8 16.21, 3.62 14.34, 2.38 12.95 C1.14 11.56, -1.35 10.43, -1.1 8.56 C-0.85 6.69, 2.22 3.06, 3.88 1.74 C5.54 0.41, 8.15 0.86, 8.86 0.59 C9.58 0.32, 8.41 -0.12, 8.18 0.1" stroke="#000000" stroke-width="1" fill="none"></path></g><g stroke-linecap="round"><g transform="translate(160.72552577353463 346.9256089146845) rotate(0 0.23619966055787245 7.166469693118245)" fill-rule="evenodd"><path d="M0.85 0.88 L9.74 13.33 L-9.37 16.55 L-0.72 -0.65" stroke="none" stroke-width="0" fill="#868e96" fill-rule="evenodd"></path><path d="M0.37 1.11 C3.77 6.17, 4.35 10.7, 7.72 14.55 M-0.19 -0.48 C2.32 4.75, 5.91 11.4, 8.63 15.54 M8 15.93 C3.18 15.28, -0.38 15.68, -7.5 14.77 M7.37 15.38 C4.41 15.34, 0.03 15.6, -8.16 14.5 M-7.61 15.16 C-6.7 9.02, -3.88 8.1, 0.18 -1.6 M-7.54 15.57 C-6.72 10.88, -3.77 7.02, -0.13 -0.3 M0 0 C0 0, 0 0, 0 0 M0 0 C0 0, 0 0, 0 0" stroke="#000000" stroke-width="1" fill="none"></path></g></g><mask></mask><g transform="translate(144.4297620606211 393.50645438883237) rotate(0 29.005271911621094 17.941124813512204)"><text x="29.005271911621094" y="0" font-family="Virgil, Segoe UI Emoji" font-size="13.28972208408311px" fill="#000000" text-anchor="middle" style="white-space: pre;" direction="ltr" dominant-baseline="text-before-edge">Local Db</text><text x="29.005271911621094" y="17.94112481351221" font-family="Virgil, Segoe UI Emoji" font-size="13.28972208408311px" fill="#000000" text-anchor="middle" style="white-space: pre;" direction="ltr" dominant-baseline="text-before-edge">(SQLite)</text></g><g transform="translate(457.49281009245465 553.606792771849) rotate(0 57.33007049560547 16.525975141195204)"><text x="57.33007049560547" y="0" font-family="Virgil, Segoe UI Emoji" font-size="24.482926135104044px" fill="#000000" text-anchor="middle" style="white-space: pre;" direction="ltr" dominant-baseline="text-before-edge">Admin App</text></g><g stroke-linecap="round" transform="translate(379.53959141568123 396.0549849329717) rotate(0 129.0584591989193 77.24003280172457)"><path d="M0.36 -0.04 L256.94 -1.91 L256.31 153.64 L-0.07 152.85" stroke="none" stroke-width="0" fill="#ffffff"></path><path d="M-0.94 -1.44 C56.43 -0.15, 109.8 -0.72, 259.36 0.84 M-0.58 -0.02 C67.11 0.68, 134.96 0.75, 257.53 -0.2 M257.9 1.98 C255.5 31.55, 256.78 65.11, 256.14 154.14 M258.25 0.97 C257.26 44.68, 256.49 88.29, 258.98 155.19 M259.48 153.48 C174.88 155.46, 89.29 157.02, 0.71 153.42 M257.78 154.8 C183.68 155.52, 107.34 155.58, -0.26 154.6 M0.96 154.86 C-1.9 95.79, 0.03 35.88, -0.19 0.55 M0.66 155.25 C-0.21 122.23, -0.36 87.6, 0.81 0.31" stroke="#000000" stroke-width="1" fill="none"></path></g><g stroke-linecap="round" transform="translate(379.89889064286547 396.0989411046378) rotate(0 128.2066999538892 12.582620419877628)"><path d="M1.6 -1.03 L256.53 -0.37 L256.66 27.13 L1 26.61" stroke="none" stroke-width="0" fill="#ced4da"></path><path d="M-1.23 0.16 C63.54 -0.18, 128.98 -0.46, 257.3 -1.13 M-0.69 0.37 C90.75 -1.67, 181.65 -1.33, 256.99 -0.52 M258.26 -1.88 C255.59 11.37, 254.37 17.53, 255.9 26.96 M255.97 -0.51 C256.73 9.55, 257.11 19.58, 255.54 25.92 M255.05 25.54 C171.09 25.91, 84.01 26.35, -1.58 23.86 M257.04 24.48 C177.4 25.25, 98.37 25.06, -0.76 24.83 M1.79 24.76 C-1.18 17.05, -1.42 9.59, 0.72 0.24 M0.17 26.1 C0.67 21.02, -0.53 14.95, 0.39 0.27" stroke="#000000" stroke-width="1" fill="none"></path></g><g stroke-linecap="round" transform="translate(388.5981082976235 402.9292658875139) rotate(0 5.047896472622654 5.047896472622654)"><path d="M10.1 5.05 C10.1 5.34, 10.07 5.64, 10.02 5.92 C9.97 6.21, 9.89 6.5, 9.79 6.77 C9.69 7.05, 9.57 7.32, 9.42 7.57 C9.27 7.82, 9.1 8.07, 8.91 8.29 C8.73 8.52, 8.52 8.73, 8.29 8.91 C8.07 9.1, 7.82 9.27, 7.57 9.42 C7.32 9.57, 7.05 9.69, 6.77 9.79 C6.5 9.89, 6.21 9.97, 5.92 10.02 C5.64 10.07, 5.34 10.1, 5.05 10.1 C4.76 10.1, 4.46 10.07, 4.17 10.02 C3.88 9.97, 3.6 9.89, 3.32 9.79 C3.05 9.69, 2.78 9.57, 2.52 9.42 C2.27 9.27, 2.03 9.1, 1.8 8.91 C1.58 8.73, 1.37 8.52, 1.18 8.29 C0.99 8.07, 0.82 7.82, 0.68 7.57 C0.53 7.32, 0.4 7.05, 0.3 6.77 C0.2 6.5, 0.13 6.21, 0.08 5.92 C0.03 5.64, 0 5.34, 0 5.05 C0 4.76, 0.03 4.46, 0.08 4.17 C0.13 3.88, 0.2 3.6, 0.3 3.32 C0.4 3.05, 0.53 2.78, 0.68 2.52 C0.82 2.27, 0.99 2.03, 1.18 1.8 C1.37 1.58, 1.58 1.37, 1.8 1.18 C2.03 0.99, 2.27 0.82, 2.52 0.68 C2.78 0.53, 3.05 0.4, 3.32 0.3 C3.6 0.2, 3.88 0.13, 4.17 0.08 C4.46 0.03, 4.76 0, 5.05 0 C5.34 0, 5.64 0.03, 5.92 0.08 C6.21 0.13, 6.5 0.2, 6.77 0.3 C7.05 0.4, 7.32 0.53, 7.57 0.68 C7.82 0.82, 8.07 0.99, 8.29 1.18 C8.52 1.37, 8.73 1.58, 8.91 1.8 C9.1 2.03, 9.27 2.27, 9.42 2.52 C9.57 2.78, 9.69 3.05, 9.79 3.32 C9.89 3.6, 9.97 3.88, 10.02 4.17 C10.07 4.46, 10.08 4.9, 10.1 5.05 C10.11 5.19, 10.11 4.9, 10.1 5.05" stroke="none" stroke-width="0" fill="#fa5252"></path><path d="M10.1 5.05 C10.1 5.34, 10.07 5.64, 10.02 5.92 C9.97 6.21, 9.89 6.5, 9.79 6.77 C9.69 7.05, 9.57 7.32, 9.42 7.57 C9.27 7.82, 9.1 8.07, 8.91 8.29 C8.73 8.52, 8.52 8.73, 8.29 8.91 C8.07 9.1, 7.82 9.27, 7.57 9.42 C7.32 9.57, 7.05 9.69, 6.77 9.79 C6.5 9.89, 6.21 9.97, 5.92 10.02 C5.64 10.07, 5.34 10.1, 5.05 10.1 C4.76 10.1, 4.46 10.07, 4.17 10.02 C3.88 9.97, 3.6 9.89, 3.32 9.79 C3.05 9.69, 2.78 9.57, 2.52 9.42 C2.27 9.27, 2.03 9.1, 1.8 8.91 C1.58 8.73, 1.37 8.52, 1.18 8.29 C0.99 8.07, 0.82 7.82, 0.68 7.57 C0.53 7.32, 0.4 7.05, 0.3 6.77 C0.2 6.5, 0.13 6.21, 0.08 5.92 C0.03 5.64, 0 5.34, 0 5.05 C0 4.76, 0.03 4.46, 0.08 4.17 C0.13 3.88, 0.2 3.6, 0.3 3.32 C0.4 3.05, 0.53 2.78, 0.68 2.52 C0.82 2.27, 0.99 2.03, 1.18 1.8 C1.37 1.58, 1.58 1.37, 1.8 1.18 C2.03 0.99, 2.27 0.82, 2.52 0.68 C2.78 0.53, 3.05 0.4, 3.32 0.3 C3.6 0.2, 3.88 0.13, 4.17 0.08 C4.46 0.03, 4.76 0, 5.05 0 C5.34 0, 5.64 0.03, 5.92 0.08 C6.21 0.13, 6.5 0.2, 6.77 0.3 C7.05 0.4, 7.32 0.53, 7.57 0.68 C7.82 0.82, 8.07 0.99, 8.29 1.18 C8.52 1.37, 8.73 1.58, 8.91 1.8 C9.1 2.03, 9.27 2.27, 9.42 2.52 C9.57 2.78, 9.69 3.05, 9.79 3.32 C9.89 3.6, 9.97 3.88, 10.02 4.17 C10.07 4.46, 10.08 4.9, 10.1 5.05 C10.11 5.19, 10.11 4.9, 10.1 5.05" stroke="#000000" stroke-width="1" fill="none"></path></g><g stroke-linecap="round" transform="translate(409.31202631044425 402.9292658875139) rotate(0 5.047896472622654 5.047896472622654)"><path d="M10.1 5.05 C10.1 5.34, 10.07 5.64, 10.02 5.92 C9.97 6.21, 9.89 6.5, 9.79 6.77 C9.69 7.05, 9.57 7.32, 9.42 7.57 C9.27 7.82, 9.1 8.07, 8.91 8.29 C8.73 8.52, 8.52 8.73, 8.29 8.91 C8.07 9.1, 7.82 9.27, 7.57 9.42 C7.32 9.57, 7.05 9.69, 6.77 9.79 C6.5 9.89, 6.21 9.97, 5.92 10.02 C5.64 10.07, 5.34 10.1, 5.05 10.1 C4.76 10.1, 4.46 10.07, 4.17 10.02 C3.88 9.97, 3.6 9.89, 3.32 9.79 C3.05 9.69, 2.78 9.57, 2.52 9.42 C2.27 9.27, 2.03 9.1, 1.8 8.91 C1.58 8.73, 1.37 8.52, 1.18 8.29 C0.99 8.07, 0.82 7.82, 0.68 7.57 C0.53 7.32, 0.4 7.05, 0.3 6.77 C0.2 6.5, 0.13 6.21, 0.08 5.92 C0.03 5.64, 0 5.34, 0 5.05 C0 4.76, 0.03 4.46, 0.08 4.17 C0.13 3.88, 0.2 3.6, 0.3 3.32 C0.4 3.05, 0.53 2.78, 0.68 2.52 C0.82 2.27, 0.99 2.03, 1.18 1.8 C1.37 1.58, 1.58 1.37, 1.8 1.18 C2.03 0.99, 2.27 0.82, 2.52 0.68 C2.78 0.53, 3.05 0.4, 3.32 0.3 C3.6 0.2, 3.88 0.13, 4.17 0.08 C4.46 0.03, 4.76 0, 5.05 0 C5.34 0, 5.64 0.03, 5.92 0.08 C6.21 0.13, 6.5 0.2, 6.77 0.3 C7.05 0.4, 7.32 0.53, 7.57 0.68 C7.82 0.82, 8.07 0.99, 8.29 1.18 C8.52 1.37, 8.73 1.58, 8.91 1.8 C9.1 2.03, 9.27 2.27, 9.42 2.52 C9.57 2.78, 9.69 3.05, 9.79 3.32 C9.89 3.6, 9.97 3.88, 10.02 4.17 C10.07 4.46, 10.08 4.9, 10.1 5.05 C10.11 5.19, 10.11 4.9, 10.1 5.05" stroke="none" stroke-width="0" fill="#fab005"></path><path d="M10.1 5.05 C10.1 5.34, 10.07 5.64, 10.02 5.92 C9.97 6.21, 9.89 6.5, 9.79 6.77 C9.69 7.05, 9.57 7.32, 9.42 7.57 C9.27 7.82, 9.1 8.07, 8.91 8.29 C8.73 8.52, 8.52 8.73, 8.29 8.91 C8.07 9.1, 7.82 9.27, 7.57 9.42 C7.32 9.57, 7.05 9.69, 6.77 9.79 C6.5 9.89, 6.21 9.97, 5.92 10.02 C5.64 10.07, 5.34 10.1, 5.05 10.1 C4.76 10.1, 4.46 10.07, 4.17 10.02 C3.88 9.97, 3.6 9.89, 3.32 9.79 C3.05 9.69, 2.78 9.57, 2.52 9.42 C2.27 9.27, 2.03 9.1, 1.8 8.91 C1.58 8.73, 1.37 8.52, 1.18 8.29 C0.99 8.07, 0.82 7.82, 0.68 7.57 C0.53 7.32, 0.4 7.05, 0.3 6.77 C0.2 6.5, 0.13 6.21, 0.08 5.92 C0.03 5.64, 0 5.34, 0 5.05 C0 4.76, 0.03 4.46, 0.08 4.17 C0.13 3.88, 0.2 3.6, 0.3 3.32 C0.4 3.05, 0.53 2.78, 0.68 2.52 C0.82 2.27, 0.99 2.03, 1.18 1.8 C1.37 1.58, 1.58 1.37, 1.8 1.18 C2.03 0.99, 2.27 0.82, 2.52 0.68 C2.78 0.53, 3.05 0.4, 3.32 0.3 C3.6 0.2, 3.88 0.13, 4.17 0.08 C4.46 0.03, 4.76 0, 5.05 0 C5.34 0, 5.64 0.03, 5.92 0.08 C6.21 0.13, 6.5 0.2, 6.77 0.3 C7.05 0.4, 7.32 0.53, 7.57 0.68 C7.82 0.82, 8.07 0.99, 8.29 1.18 C8.52 1.37, 8.73 1.58, 8.91 1.8 C9.1 2.03, 9.27 2.27, 9.42 2.52 C9.57 2.78, 9.69 3.05, 9.79 3.32 C9.89 3.6, 9.97 3.88, 10.02 4.17 C10.07 4.46, 10.08 4.9, 10.1 5.05 C10.11 5.19, 10.11 4.9, 10.1 5.05" stroke="#000000" stroke-width="1" fill="none"></path></g><g stroke-linecap="round" transform="translate(430.93566645207454 403.8389880163553) rotate(0 5.047896472622654 5.047896472622654)"><path d="M10.1 5.05 C10.1 5.34, 10.07 5.64, 10.02 5.92 C9.97 6.21, 9.89 6.5, 9.79 6.77 C9.69 7.05, 9.57 7.32, 9.42 7.57 C9.27 7.82, 9.1 8.07, 8.91 8.29 C8.73 8.52, 8.52 8.73, 8.29 8.91 C8.07 9.1, 7.82 9.27, 7.57 9.42 C7.32 9.57, 7.05 9.69, 6.77 9.79 C6.5 9.89, 6.21 9.97, 5.92 10.02 C5.64 10.07, 5.34 10.1, 5.05 10.1 C4.76 10.1, 4.46 10.07, 4.17 10.02 C3.88 9.97, 3.6 9.89, 3.32 9.79 C3.05 9.69, 2.78 9.57, 2.52 9.42 C2.27 9.27, 2.03 9.1, 1.8 8.91 C1.58 8.73, 1.37 8.52, 1.18 8.29 C0.99 8.07, 0.82 7.82, 0.68 7.57 C0.53 7.32, 0.4 7.05, 0.3 6.77 C0.2 6.5, 0.13 6.21, 0.08 5.92 C0.03 5.64, 0 5.34, 0 5.05 C0 4.76, 0.03 4.46, 0.08 4.17 C0.13 3.88, 0.2 3.6, 0.3 3.32 C0.4 3.05, 0.53 2.78, 0.68 2.52 C0.82 2.27, 0.99 2.03, 1.18 1.8 C1.37 1.58, 1.58 1.37, 1.8 1.18 C2.03 0.99, 2.27 0.82, 2.52 0.68 C2.78 0.53, 3.05 0.4, 3.32 0.3 C3.6 0.2, 3.88 0.13, 4.17 0.08 C4.46 0.03, 4.76 0, 5.05 0 C5.34 0, 5.64 0.03, 5.92 0.08 C6.21 0.13, 6.5 0.2, 6.77 0.3 C7.05 0.4, 7.32 0.53, 7.57 0.68 C7.82 0.82, 8.07 0.99, 8.29 1.18 C8.52 1.37, 8.73 1.58, 8.91 1.8 C9.1 2.03, 9.27 2.27, 9.42 2.52 C9.57 2.78, 9.69 3.05, 9.79 3.32 C9.89 3.6, 9.97 3.88, 10.02 4.17 C10.07 4.46, 10.08 4.9, 10.1 5.05 C10.11 5.19, 10.11 4.9, 10.1 5.05" stroke="none" stroke-width="0" fill="#40c057"></path><path d="M10.1 5.05 C10.1 5.34, 10.07 5.64, 10.02 5.92 C9.97 6.21, 9.89 6.5, 9.79 6.77 C9.69 7.05, 9.57 7.32, 9.42 7.57 C9.27 7.82, 9.1 8.07, 8.91 8.29 C8.73 8.52, 8.52 8.73, 8.29 8.91 C8.07 9.1, 7.82 9.27, 7.57 9.42 C7.32 9.57, 7.05 9.69, 6.77 9.79 C6.5 9.89, 6.21 9.97, 5.92 10.02 C5.64 10.07, 5.34 10.1, 5.05 10.1 C4.76 10.1, 4.46 10.07, 4.17 10.02 C3.88 9.97, 3.6 9.89, 3.32 9.79 C3.05 9.69, 2.78 9.57, 2.52 9.42 C2.27 9.27, 2.03 9.1, 1.8 8.91 C1.58 8.73, 1.37 8.52, 1.18 8.29 C0.99 8.07, 0.82 7.82, 0.68 7.57 C0.53 7.32, 0.4 7.05, 0.3 6.77 C0.2 6.5, 0.13 6.21, 0.08 5.92 C0.03 5.64, 0 5.34, 0 5.05 C0 4.76, 0.03 4.46, 0.08 4.17 C0.13 3.88, 0.2 3.6, 0.3 3.32 C0.4 3.05, 0.53 2.78, 0.68 2.52 C0.82 2.27, 0.99 2.03, 1.18 1.8 C1.37 1.58, 1.58 1.37, 1.8 1.18 C2.03 0.99, 2.27 0.82, 2.52 0.68 C2.78 0.53, 3.05 0.4, 3.32 0.3 C3.6 0.2, 3.88 0.13, 4.17 0.08 C4.46 0.03, 4.76 0, 5.05 0 C5.34 0, 5.64 0.03, 5.92 0.08 C6.21 0.13, 6.5 0.2, 6.77 0.3 C7.05 0.4, 7.32 0.53, 7.57 0.68 C7.82 0.82, 8.07 0.99, 8.29 1.18 C8.52 1.37, 8.73 1.58, 8.91 1.8 C9.1 2.03, 9.27 2.27, 9.42 2.52 C9.57 2.78, 9.69 3.05, 9.79 3.32 C9.89 3.6, 9.97 3.88, 10.02 4.17 C10.07 4.46, 10.08 4.9, 10.1 5.05 C10.11 5.19, 10.11 4.9, 10.1 5.05" stroke="#000000" stroke-width="1" fill="none"></path></g><g stroke-linecap="round" transform="translate(423.1890131843154 484.80367142338605) rotate(0 82.99808379241836 12.231296558882718)"><path d="M6.12 0 M6.12 0 C43.8 0.43, 78.3 1.77, 159.88 0 M6.12 0 C54.14 0.06, 102.5 0.01, 159.88 0 M159.88 0 C163.65 -1.73, 165.61 0.44, 166 6.12 M159.88 0 C164.15 -0.67, 165.63 4.29, 166 6.12 M166 6.12 C166.02 9.27, 166.33 14.61, 166 18.35 M166 6.12 C166.23 11.03, 165.87 16.17, 166 18.35 M166 18.35 C167.74 23.04, 162.93 25.66, 159.88 24.46 M166 18.35 C164.71 20.93, 162.74 25.06, 159.88 24.46 M159.88 24.46 C114.9 24.4, 72.55 22.09, 6.12 24.46 M159.88 24.46 C99.35 24.1, 40.74 23.87, 6.12 24.46 M6.12 24.46 C0.33 25.59, 0.38 24.32, 0 18.35 M6.12 24.46 C4.05 24.86, 1.61 20.48, 0 18.35 M0 18.35 C-0.89 15.22, 0.67 10.95, 0 6.12 M0 18.35 C-0.3 13.69, 0.41 10.41, 0 6.12 M0 6.12 C0.59 2.78, 3.81 1.16, 6.12 0 M0 6.12 C-0.56 2.82, 2.87 -0.98, 6.12 0" stroke="#000000" stroke-width="1" fill="none"></path></g><g stroke-linecap="round" transform="translate(569.090907850985 490.919319702827) rotate(0 4.846937211552472 4.16666532221177)"><path d="M3.51 -0.5 C4.27 -0.81, 5.88 0.72, 6.77 1.07 C7.67 1.41, 8.32 0.86, 8.87 1.59 C9.42 2.32, 10.14 4.33, 10.08 5.47 C10.02 6.62, 9.46 7.89, 8.53 8.48 C7.61 9.07, 5.88 9.2, 4.55 9.01 C3.22 8.83, 1.2 8.11, 0.54 7.36 C-0.12 6.6, 0.66 5.29, 0.61 4.47 C0.56 3.66, -0.55 3.12, 0.23 2.46 C1.02 1.8, 4.31 1.02, 5.29 0.5 C6.28 -0.01, 6.27 -0.49, 6.15 -0.61 M3.46 0.86 C4.44 0.46, 6.8 0.8, 7.66 1.07 C8.51 1.33, 8.16 1.95, 8.58 2.45 C9.01 2.96, 10.07 3.43, 10.19 4.09 C10.31 4.75, 10.04 5.55, 9.32 6.43 C8.61 7.31, 7.36 9.23, 5.91 9.37 C4.47 9.51, 1.41 8.05, 0.66 7.28 C-0.08 6.5, 1.61 5.64, 1.42 4.71 C1.22 3.77, -0.83 2.53, -0.52 1.67 C-0.21 0.81, 2.66 -0.37, 3.29 -0.44 C3.92 -0.52, 3.47 1.18, 3.24 1.22" stroke="#000000" stroke-width="1" fill="none"></path></g><g stroke-linecap="round"><g transform="translate(578.573974579315 499.1785106560851) rotate(0 2.645533137021289 3.158755875448037)"><path d="M1.7 1.41 C3.03 1.76, 5.66 3.64, 6.11 4.15 M-0.82 -0.3 C0.41 0.16, 3.99 5.47, 4.52 6.62" stroke="#000000" stroke-width="1" fill="none"></path></g></g><mask></mask><g stroke-linecap="round" transform="translate(422.37181718267107 447.39968707539424) rotate(0 82.99808379241836 12.231296558882718)"><path d="M6.12 0 M6.12 0 C43.8 0.43, 78.3 1.77, 159.88 0 M6.12 0 C54.14 0.06, 102.5 0.01, 159.88 0 M159.88 0 C163.65 -1.73, 165.61 0.44, 166 6.12 M159.88 0 C164.15 -0.67, 165.63 4.29, 166 6.12 M166 6.12 C166.02 9.27, 166.33 14.61, 166 18.35 M166 6.12 C166.23 11.03, 165.87 16.17, 166 18.35 M166 18.35 C167.74 23.04, 162.93 25.66, 159.88 24.46 M166 18.35 C164.71 20.93, 162.74 25.06, 159.88 24.46 M159.88 24.46 C114.9 24.4, 72.55 22.09, 6.12 24.46 M159.88 24.46 C99.35 24.1, 40.74 23.87, 6.12 24.46 M6.12 24.46 C0.33 25.59, 0.38 24.32, 0 18.35 M6.12 24.46 C4.05 24.86, 1.61 20.48, 0 18.35 M0 18.35 C-0.89 15.22, 0.67 10.95, 0 6.12 M0 18.35 C-0.3 13.69, 0.41 10.41, 0 6.12 M0 6.12 C0.59 2.78, 3.81 1.16, 6.12 0 M0 6.12 C-0.56 2.82, 2.87 -0.98, 6.12 0" stroke="#000000" stroke-width="1" fill="none"></path></g><g stroke-linecap="round" transform="translate(566.7734298683035 453.44366338431655) rotate(0 4.846937211552472 4.16666532221177)"><path d="M3.51 -0.5 C4.27 -0.81, 5.88 0.72, 6.77 1.07 C7.67 1.41, 8.32 0.86, 8.87 1.59 C9.42 2.32, 10.14 4.33, 10.08 5.47 C10.02 6.62, 9.46 7.89, 8.53 8.48 C7.61 9.07, 5.88 9.2, 4.55 9.01 C3.22 8.83, 1.2 8.11, 0.54 7.36 C-0.12 6.6, 0.66 5.29, 0.61 4.47 C0.56 3.66, -0.55 3.12, 0.23 2.46 C1.02 1.8, 4.31 1.02, 5.29 0.5 C6.28 -0.01, 6.27 -0.49, 6.15 -0.61 M3.46 0.86 C4.44 0.46, 6.8 0.8, 7.66 1.07 C8.51 1.33, 8.16 1.95, 8.58 2.45 C9.01 2.96, 10.07 3.43, 10.19 4.09 C10.31 4.75, 10.04 5.55, 9.32 6.43 C8.61 7.31, 7.36 9.23, 5.91 9.37 C4.47 9.51, 1.41 8.05, 0.66 7.28 C-0.08 6.5, 1.61 5.64, 1.42 4.71 C1.22 3.77, -0.83 2.53, -0.52 1.67 C-0.21 0.81, 2.66 -0.37, 3.29 -0.44 C3.92 -0.52, 3.47 1.18, 3.24 1.22" stroke="#000000" stroke-width="1" fill="none"></path></g><g stroke-linecap="round"><g transform="translate(576.2564965966336 461.7028543375744) rotate(0 2.645533137021289 3.158755875448037)"><path d="M1.7 1.41 C3.03 1.76, 5.66 3.64, 6.11 4.15 M-0.82 -0.3 C0.41 0.16, 3.99 5.47, 4.52 6.62" stroke="#000000" stroke-width="1" fill="none"></path></g></g><mask></mask><g stroke-linecap="round"><g transform="translate(343.8624357514441 77.37714097305172) rotate(0 51.48180858729256 -19.152432585575383)"><path d="M0 0 C7.7 -5.77, 29.05 -28.31, 46.21 -34.59 C63.37 -40.87, 93.51 -37.17, 102.96 -37.68 M0 0 C7.7 -5.77, 29.05 -28.31, 46.21 -34.59 C63.37 -40.87, 93.51 -37.17, 102.96 -37.68" stroke="#000000" stroke-width="1" fill="none"></path></g><g transform="translate(343.8624357514441 77.37714097305172) rotate(0 51.48180858729256 -19.152432585575383)"><path d="M76.05 -28.56 C82.25 -30.66, 88.45 -32.76, 102.96 -37.68 M76.05 -28.56 C85.77 -31.85, 95.5 -35.15, 102.96 -37.68" stroke="#000000" stroke-width="1" fill="none"></path></g><g transform="translate(343.8624357514441 77.37714097305172) rotate(0 51.48180858729256 -19.152432585575383)"><path d="M76.48 -47.99 C82.58 -45.62, 88.69 -43.24, 102.96 -37.68 M76.48 -47.99 C86.05 -44.27, 95.62 -40.54, 102.96 -37.68" stroke="#000000" stroke-width="1" fill="none"></path></g></g><mask></mask><g stroke-linecap="round"><g transform="translate(503.242451341393 140.85511382017685) rotate(0 -63.2140248066288 18.71286620025768)"><path d="M0 0 C-3.27 5.63, 1.45 27.67, -19.62 33.8 C-40.69 39.94, -108.63 36.31, -126.43 36.81 M0 0 C-3.27 5.63, 1.45 27.67, -19.62 33.8 C-40.69 39.94, -108.63 36.31, -126.43 36.81" stroke="#000000" stroke-width="1" fill="none"></path></g><g transform="translate(503.242451341393 140.85511382017685) rotate(0 -63.2140248066288 18.71286620025768)"><path d="M-98.13 26.85 C-105.34 29.39, -112.56 31.93, -126.43 36.81 M-98.13 26.85 C-104.84 29.21, -111.55 31.57, -126.43 36.81" stroke="#000000" stroke-width="1" fill="none"></path></g><g transform="translate(503.242451341393 140.85511382017685) rotate(0 -63.2140248066288 18.71286620025768)"><path d="M-98.35 47.37 C-105.51 44.68, -112.66 41.99, -126.43 36.81 M-98.35 47.37 C-105.01 44.87, -111.67 42.36, -126.43 36.81" stroke="#000000" stroke-width="1" fill="none"></path></g></g><mask></mask><g stroke-linecap="round"><g transform="translate(63.253599869106495 377.56339801351396) rotate(0 40.66542379193962 -16.31940795878009)"><path d="M0 0 C3.12 -4.22, 5.17 -19.86, 18.73 -25.3 C32.28 -30.74, 70.9 -31.41, 81.33 -32.64 M0 0 C3.12 -4.22, 5.17 -19.86, 18.73 -25.3 C32.28 -30.74, 70.9 -31.41, 81.33 -32.64" stroke="#000000" stroke-width="1" fill="none"></path></g><g transform="translate(63.253599869106495 377.56339801351396) rotate(0 40.66542379193962 -16.31940795878009)"><path d="M53.93 -20.42 C62.03 -24.03, 70.12 -27.64, 81.33 -32.64 M53.93 -20.42 C62.85 -24.4, 71.77 -28.37, 81.33 -32.64" stroke="#000000" stroke-width="1" fill="none"></path></g><g transform="translate(63.253599869106495 377.56339801351396) rotate(0 40.66542379193962 -16.31940795878009)"><path d="M52.49 -40.89 C61.01 -38.45, 69.53 -36.02, 81.33 -32.64 M52.49 -40.89 C61.88 -38.2, 71.27 -35.52, 81.33 -32.64" stroke="#000000" stroke-width="1" fill="none"></path></g></g><mask></mask><g stroke-linecap="round"><g transform="translate(178.29765746636758 432.41156820986) rotate(0 -26.2366683250344 17.009810698238027)"><path d="M0 0 C-1.91 5.07, -2.71 24.78, -11.46 30.42 C-20.2 36.05, -45.64 33.24, -52.47 33.81 M0 0 C-1.91 5.07, -2.71 24.78, -11.46 30.42 C-20.2 36.05, -45.64 33.24, -52.47 33.81" stroke="#000000" stroke-width="1" fill="none"></path></g><g transform="translate(178.29765746636758 432.41156820986) rotate(0 -26.2366683250344 17.009810698238027)"><path d="M-33.08 26.93 C-40.82 29.67, -48.57 32.42, -52.47 33.81 M-33.08 26.93 C-37.18 28.38, -41.27 29.83, -52.47 33.81" stroke="#000000" stroke-width="1" fill="none"></path></g><g transform="translate(178.29765746636758 432.41156820986) rotate(0 -26.2366683250344 17.009810698238027)"><path d="M-33.2 41 C-40.89 38.13, -48.59 35.26, -52.47 33.81 M-33.2 41 C-37.27 39.48, -41.34 37.96, -52.47 33.81" stroke="#000000" stroke-width="1" fill="none"></path></g></g><mask></mask><g stroke-linecap="round"><g transform="translate(172.34487306798405 315.64060095193076) rotate(0 60.87477198263582 -74.22641734289007)"><path d="M0 0 C7.43 -22.04, 24.27 -107.61, 44.56 -132.27 C64.85 -156.92, 108.88 -145.34, 121.75 -147.95 M0 0 C7.43 -22.04, 24.27 -107.61, 44.56 -132.27 C64.85 -156.92, 108.88 -145.34, 121.75 -147.95" stroke="#000000" stroke-width="1" fill="none"></path></g><g transform="translate(172.34487306798405 315.64060095193076) rotate(0 60.87477198263582 -74.22641734289007)"><path d="M93.49 -137.87 C103.69 -141.51, 113.88 -145.14, 121.75 -147.95 M93.49 -137.87 C100.28 -140.29, 107.07 -142.72, 121.75 -147.95" stroke="#000000" stroke-width="1" fill="none"></path></g><g transform="translate(172.34487306798405 315.64060095193076) rotate(0 60.87477198263582 -74.22641734289007)"><path d="M93.63 -158.39 C103.77 -154.63, 113.92 -150.86, 121.75 -147.95 M93.63 -158.39 C100.38 -155.88, 107.14 -153.38, 121.75 -147.95" stroke="#000000" stroke-width="1" fill="none"></path></g></g><mask></mask><g stroke-linecap="round"><g transform="translate(402.2857670268272 391.70247143083054) rotate(0 -26.29143444866736 -63.49520684003369)"><path d="M0 0 C-6.48 -8.96, -30.13 -32.61, -38.89 -53.77 C-47.66 -74.94, -50.3 -114.79, -52.58 -126.99 M0 0 C-6.48 -8.96, -30.13 -32.61, -38.89 -53.77 C-47.66 -74.94, -50.3 -114.79, -52.58 -126.99" stroke="#000000" stroke-width="1" fill="none"></path></g><g transform="translate(402.2857670268272 391.70247143083054) rotate(0 -26.29143444866736 -63.49520684003369)"><path d="M-38.67 -100.41 C-41.84 -106.47, -45.01 -112.52, -52.58 -126.99 M-38.67 -100.41 C-42.09 -106.95, -45.51 -113.49, -52.58 -126.99" stroke="#000000" stroke-width="1" fill="none"></path></g><g transform="translate(402.2857670268272 391.70247143083054) rotate(0 -26.29143444866736 -63.49520684003369)"><path d="M-59 -97.69 C-57.54 -104.36, -56.08 -111.04, -52.58 -126.99 M-59 -97.69 C-57.43 -104.89, -55.85 -112.1, -52.58 -126.99" stroke="#000000" stroke-width="1" fill="none"></path></g></g><mask></mask><g stroke-linecap="round"><g transform="translate(376.5267027124794 258.3367691419669) rotate(0 55.271003906036526 65.86421665356247)"><path d="M0 0 C10 5.25, 41.6 9.55, 60.02 31.5 C78.45 53.46, 102.12 115.02, 110.54 131.73 M0 0 C10 5.25, 41.6 9.55, 60.02 31.5 C78.45 53.46, 102.12 115.02, 110.54 131.73" stroke="#000000" stroke-width="1" fill="none"></path></g><g transform="translate(376.5267027124794 258.3367691419669) rotate(0 55.271003906036526 65.86421665356247)"><path d="M89.65 110.2 C94.75 115.46, 99.86 120.72, 110.54 131.73 M89.65 110.2 C97.89 118.69, 106.13 127.18, 110.54 131.73" stroke="#000000" stroke-width="1" fill="none"></path></g><g transform="translate(376.5267027124794 258.3367691419669) rotate(0 55.271003906036526 65.86421665356247)"><path d="M108.38 101.81 C108.91 109.12, 109.43 116.43, 110.54 131.73 M108.38 101.81 C109.23 113.61, 110.08 125.41, 110.54 131.73" stroke="#000000" stroke-width="1" fill="none"></path></g></g><mask></mask><g stroke-linecap="round"><g transform="translate(302.10023722369317 265.69162313487584) rotate(0 -51.882353556228 47.62311030769453)"><path d="M0 0 C-3.83 10.58, -5.69 47.61, -22.98 63.48 C-40.28 79.36, -90.3 89.95, -103.76 95.25 M0 0 C-3.83 10.58, -5.69 47.61, -22.98 63.48 C-40.28 79.36, -90.3 89.95, -103.76 95.25" stroke="#000000" stroke-width="1" fill="none"></path></g><g transform="translate(302.10023722369317 265.69162313487584) rotate(0 -51.882353556228 47.62311030769453)"><path d="M-79.84 77.14 C-86.05 81.84, -92.26 86.54, -103.76 95.25 M-79.84 77.14 C-85.15 81.16, -90.45 85.17, -103.76 95.25" stroke="#000000" stroke-width="1" fill="none"></path></g><g transform="translate(302.10023722369317 265.69162313487584) rotate(0 -51.882353556228 47.62311030769453)"><path d="M-73.8 96.75 C-81.58 96.36, -89.36 95.97, -103.76 95.25 M-73.8 96.75 C-80.44 96.42, -87.09 96.09, -103.76 95.25" stroke="#000000" stroke-width="1" fill="none"></path></g></g><mask></mask></svg>