<svg version="1.1" xmlns="http://www.w3.org/2000/svg" viewBox="0 0 229.17749331287618 604.65272615818" width="229.17749331287618" height="604.65272615818">
  <!-- svg-source:excalidraw -->
  
  <defs>
    <style class="style-fonts">
      @font-face {
        font-family: "Virgil";
        src: url("https://excalidraw.com/Virgil.woff2");
      }
      @font-face {
        font-family: "Cascadia";
        src: url("https://excalidraw.com/Cascadia.woff2");
      }
    </style>
  </defs>
  <rect x="0" y="0" width="229.17749331287618" height="604.65272615818" fill="#ffffff"></rect><g stroke-linecap="round" transform="translate(12.778823006671928 69.61986205614176) rotate(0 15.101277592690096 3.9151460425492814)"><path d="M1.96 0 M1.96 0 C10.65 0, 19.34 0, 28.24 0 M1.96 0 C9.93 0, 17.9 0, 28.24 0 M28.24 0 C29.55 0, 30.2 0.65, 30.2 1.96 M28.24 0 C29.55 0, 30.2 0.65, 30.2 1.96 M30.2 1.96 C30.2 3.28, 30.2 4.61, 30.2 5.87 M30.2 1.96 C30.2 2.84, 30.2 3.73, 30.2 5.87 M30.2 5.87 C30.2 7.18, 29.55 7.83, 28.24 7.83 M30.2 5.87 C30.2 7.18, 29.55 7.83, 28.24 7.83 M28.24 7.83 C19.59 7.83, 10.94 7.83, 1.96 7.83 M28.24 7.83 C22.91 7.83, 17.57 7.83, 1.96 7.83 M1.96 7.83 C0.65 7.83, 0 7.18, 0 5.87 M1.96 7.83 C0.65 7.83, 0 7.18, 0 5.87 M0 5.87 C0 4.47, 0 3.06, 0 1.96 M0 5.87 C0 5.03, 0 4.19, 0 1.96 M0 1.96 C0 0.65, 0.65 0, 1.96 0 M0 1.96 C0 0.65, 0.65 0, 1.96 0" stroke="#000000" stroke-width="1" fill="none"></path></g><g stroke-linecap="round" transform="translate(11.380556562904303 73.53500809869115) rotate(0 21.673129878397802 15.241104237066793)"><path d="M7.62 0 L35.73 0 L39.06 0.48 L41.44 1.91 L42.87 4.29 L43.35 7.62 L43.35 22.86 L42.87 26.2 L41.44 28.58 L39.06 30.01 L35.73 30.48 L7.62 30.48 L4.29 30.01 L1.91 28.58 L0.48 26.2 L0 22.86 L0.48 4.29 L1.91 1.91 L4.29 0.48 L7.62 0" stroke="none" stroke-width="0" fill="#fff"></path><path d="M7.62 0 M7.62 0 C17.95 0, 28.29 0, 35.73 0 M7.62 0 C15.22 0, 22.83 0, 35.73 0 M35.73 0 C40.81 0, 43.35 2.54, 43.35 7.62 M35.73 0 C40.81 0, 43.35 2.54, 43.35 7.62 M43.35 7.62 C43.35 13.63, 43.35 19.65, 43.35 22.86 M43.35 7.62 C43.35 12.44, 43.35 17.27, 43.35 22.86 M43.35 22.86 C43.35 27.94, 40.81 30.48, 35.73 30.48 M43.35 22.86 C43.35 27.94, 40.81 30.48, 35.73 30.48 M35.73 30.48 C27.6 30.48, 19.47 30.48, 7.62 30.48 M35.73 30.48 C28.74 30.48, 21.76 30.48, 7.62 30.48 M7.62 30.48 C2.54 30.48, 0 27.94, 0 22.86 M7.62 30.48 C2.54 30.48, 0 27.94, 0 22.86 M0 22.86 C0 18.75, 0 14.63, 0 7.62 M0 22.86 C0 17.95, 0 13.04, 0 7.62 M0 7.62 C0 2.54, 2.54 0, 7.62 0 M0 7.62 C0 2.54, 2.54 0, 7.62 0" stroke="#000000" stroke-width="1" fill="none"></path></g><g transform="translate(62.46721984769917 78.13430593694102) rotate(0 11.407030129959509 9.66693468485596)"><text x="0" y="0" font-family="Virgil, Segoe UI Emoji" font-size="15.467095495769469px" fill="#000000" text-anchor="start" style="white-space: pre;" direction="ltr" dominant-baseline="text-before-edge">src</text></g><g stroke-linecap="round" transform="translate(60.97290004230658 122.85885690259329) rotate(0 15.101277592690082 3.9151460425492814)"><path d="M1.96 0 M1.96 0 C10.65 0, 19.34 0, 28.24 0 M1.96 0 C9.93 0, 17.9 0, 28.24 0 M28.24 0 C29.55 0, 30.2 0.65, 30.2 1.96 M28.24 0 C29.55 0, 30.2 0.65, 30.2 1.96 M30.2 1.96 C30.2 3.28, 30.2 4.61, 30.2 5.87 M30.2 1.96 C30.2 2.84, 30.2 3.73, 30.2 5.87 M30.2 5.87 C30.2 7.18, 29.55 7.83, 28.24 7.83 M30.2 5.87 C30.2 7.18, 29.55 7.83, 28.24 7.83 M28.24 7.83 C19.59 7.83, 10.94 7.83, 1.96 7.83 M28.24 7.83 C22.91 7.83, 17.57 7.83, 1.96 7.83 M1.96 7.83 C0.65 7.83, 0 7.18, 0 5.87 M1.96 7.83 C0.65 7.83, 0 7.18, 0 5.87 M0 5.87 C0 4.47, 0 3.06, 0 1.96 M0 5.87 C0 5.03, 0 4.19, 0 1.96 M0 1.96 C0 0.65, 0.65 0, 1.96 0 M0 1.96 C0 0.65, 0.65 0, 1.96 0" stroke="#000000" stroke-width="1" fill="none"></path></g><g stroke-linecap="round" transform="translate(59.574633598538895 126.77400294514246) rotate(0 21.673129878397816 15.241104237066793)"><path d="M7.62 0 L35.73 0 L39.06 0.48 L41.44 1.91 L42.87 4.29 L43.35 7.62 L43.35 22.86 L42.87 26.2 L41.44 28.58 L39.06 30.01 L35.73 30.48 L7.62 30.48 L4.29 30.01 L1.91 28.58 L0.48 26.2 L0 22.86 L0.48 4.29 L1.91 1.91 L4.29 0.48 L7.62 0" stroke="none" stroke-width="0" fill="#fff"></path><path d="M7.62 0 M7.62 0 C17.95 0, 28.29 0, 35.73 0 M7.62 0 C15.22 0, 22.83 0, 35.73 0 M35.73 0 C40.81 0, 43.35 2.54, 43.35 7.62 M35.73 0 C40.81 0, 43.35 2.54, 43.35 7.62 M43.35 7.62 C43.35 13.63, 43.35 19.65, 43.35 22.86 M43.35 7.62 C43.35 12.44, 43.35 17.27, 43.35 22.86 M43.35 22.86 C43.35 27.94, 40.81 30.48, 35.73 30.48 M43.35 22.86 C43.35 27.94, 40.81 30.48, 35.73 30.48 M35.73 30.48 C27.6 30.48, 19.47 30.48, 7.62 30.48 M35.73 30.48 C28.74 30.48, 21.76 30.48, 7.62 30.48 M7.62 30.48 C2.54 30.48, 0 27.94, 0 22.86 M7.62 30.48 C2.54 30.48, 0 27.94, 0 22.86 M0 22.86 C0 18.75, 0 14.63, 0 7.62 M0 22.86 C0 17.95, 0 13.04, 0 7.62 M0 7.62 C0 2.54, 2.54 0, 7.62 0 M0 7.62 C0 2.54, 2.54 0, 7.62 0" stroke="#000000" stroke-width="1" fill="none"></path></g><g transform="translate(110.66129688333379 131.37330078339232) rotate(0 54.258098214771195 9.66693468485596)"><text x="0" y="0" font-family="Virgil, Segoe UI Emoji" font-size="15.467095495769467px" fill="#000000" text-anchor="start" style="white-space: pre;" direction="ltr" dominant-baseline="text-before-edge">assets/images</text></g><g stroke-linecap="round" transform="translate(59.42481933670663 163.88299560098903) rotate(0 15.101277592690082 3.9151460425492814)"><path d="M1.96 0 M1.96 0 C10.65 0, 19.34 0, 28.24 0 M1.96 0 C9.93 0, 17.9 0, 28.24 0 M28.24 0 C29.55 0, 30.2 0.65, 30.2 1.96 M28.24 0 C29.55 0, 30.2 0.65, 30.2 1.96 M30.2 1.96 C30.2 3.28, 30.2 4.61, 30.2 5.87 M30.2 1.96 C30.2 2.84, 30.2 3.73, 30.2 5.87 M30.2 5.87 C30.2 7.18, 29.55 7.83, 28.24 7.83 M30.2 5.87 C30.2 7.18, 29.55 7.83, 28.24 7.83 M28.24 7.83 C19.59 7.83, 10.94 7.83, 1.96 7.83 M28.24 7.83 C22.91 7.83, 17.57 7.83, 1.96 7.83 M1.96 7.83 C0.65 7.83, 0 7.18, 0 5.87 M1.96 7.83 C0.65 7.83, 0 7.18, 0 5.87 M0 5.87 C0 4.47, 0 3.06, 0 1.96 M0 5.87 C0 5.03, 0 4.19, 0 1.96 M0 1.96 C0 0.65, 0.65 0, 1.96 0 M0 1.96 C0 0.65, 0.65 0, 1.96 0" stroke="#000000" stroke-width="1" fill="none"></path></g><g stroke-linecap="round" transform="translate(58.02655289293895 167.7981416435382) rotate(0 21.673129878397788 15.241104237066793)"><path d="M7.62 0 L35.73 0 L39.06 0.48 L41.44 1.91 L42.87 4.29 L43.35 7.62 L43.35 22.86 L42.87 26.2 L41.44 28.58 L39.06 30.01 L35.73 30.48 L7.62 30.48 L4.29 30.01 L1.91 28.58 L0.48 26.2 L0 22.86 L0.48 4.29 L1.91 1.91 L4.29 0.48 L7.62 0" stroke="none" stroke-width="0" fill="#fff"></path><path d="M7.62 0 M7.62 0 C17.95 0, 28.29 0, 35.73 0 M7.62 0 C15.22 0, 22.83 0, 35.73 0 M35.73 0 C40.81 0, 43.35 2.54, 43.35 7.62 M35.73 0 C40.81 0, 43.35 2.54, 43.35 7.62 M43.35 7.62 C43.35 13.63, 43.35 19.65, 43.35 22.86 M43.35 7.62 C43.35 12.44, 43.35 17.27, 43.35 22.86 M43.35 22.86 C43.35 27.94, 40.81 30.48, 35.73 30.48 M43.35 22.86 C43.35 27.94, 40.81 30.48, 35.73 30.48 M35.73 30.48 C27.6 30.48, 19.47 30.48, 7.62 30.48 M35.73 30.48 C28.74 30.48, 21.76 30.48, 7.62 30.48 M7.62 30.48 C2.54 30.48, 0 27.94, 0 22.86 M7.62 30.48 C2.54 30.48, 0 27.94, 0 22.86 M0 22.86 C0 18.75, 0 14.63, 0 7.62 M0 22.86 C0 17.95, 0 13.04, 0 7.62 M0 7.62 C0 2.54, 2.54 0, 7.62 0 M0 7.62 C0 2.54, 2.54 0, 7.62 0" stroke="#000000" stroke-width="1" fill="none"></path></g><g transform="translate(109.11321617773385 172.3974394817883) rotate(0 41.18131623567746 9.66693468485596)"><text x="0" y="0" font-family="Virgil, Segoe UI Emoji" font-size="15.467095495769467px" fill="#000000" text-anchor="start" style="white-space: pre;" direction="ltr" dominant-baseline="text-before-edge">components</text></g><g stroke-linecap="round" transform="translate(60.19885968950658 206.4552150049849) rotate(0 15.101277592690082 3.9151460425492814)"><path d="M1.96 0 M1.96 0 C10.65 0, 19.34 0, 28.24 0 M1.96 0 C9.93 0, 17.9 0, 28.24 0 M28.24 0 C29.55 0, 30.2 0.65, 30.2 1.96 M28.24 0 C29.55 0, 30.2 0.65, 30.2 1.96 M30.2 1.96 C30.2 3.28, 30.2 4.61, 30.2 5.87 M30.2 1.96 C30.2 2.84, 30.2 3.73, 30.2 5.87 M30.2 5.87 C30.2 7.18, 29.55 7.83, 28.24 7.83 M30.2 5.87 C30.2 7.18, 29.55 7.83, 28.24 7.83 M28.24 7.83 C19.59 7.83, 10.94 7.83, 1.96 7.83 M28.24 7.83 C22.91 7.83, 17.57 7.83, 1.96 7.83 M1.96 7.83 C0.65 7.83, 0 7.18, 0 5.87 M1.96 7.83 C0.65 7.83, 0 7.18, 0 5.87 M0 5.87 C0 4.47, 0 3.06, 0 1.96 M0 5.87 C0 5.03, 0 4.19, 0 1.96 M0 1.96 C0 0.65, 0.65 0, 1.96 0 M0 1.96 C0 0.65, 0.65 0, 1.96 0" stroke="#000000" stroke-width="1" fill="none"></path></g><g stroke-linecap="round" transform="translate(58.80059324573901 210.37036104753406) rotate(0 21.673129878397788 15.241104237066793)"><path d="M7.62 0 L35.73 0 L39.06 0.48 L41.44 1.91 L42.87 4.29 L43.35 7.62 L43.35 22.86 L42.87 26.2 L41.44 28.58 L39.06 30.01 L35.73 30.48 L7.62 30.48 L4.29 30.01 L1.91 28.58 L0.48 26.2 L0 22.86 L0.48 4.29 L1.91 1.91 L4.29 0.48 L7.62 0" stroke="none" stroke-width="0" fill="#fff"></path><path d="M7.62 0 M7.62 0 C17.95 0, 28.29 0, 35.73 0 M7.62 0 C15.22 0, 22.83 0, 35.73 0 M35.73 0 C40.81 0, 43.35 2.54, 43.35 7.62 M35.73 0 C40.81 0, 43.35 2.54, 43.35 7.62 M43.35 7.62 C43.35 13.63, 43.35 19.65, 43.35 22.86 M43.35 7.62 C43.35 12.44, 43.35 17.27, 43.35 22.86 M43.35 22.86 C43.35 27.94, 40.81 30.48, 35.73 30.48 M43.35 22.86 C43.35 27.94, 40.81 30.48, 35.73 30.48 M35.73 30.48 C27.6 30.48, 19.47 30.48, 7.62 30.48 M35.73 30.48 C28.74 30.48, 21.76 30.48, 7.62 30.48 M7.62 30.48 C2.54 30.48, 0 27.94, 0 22.86 M7.62 30.48 C2.54 30.48, 0 27.94, 0 22.86 M0 22.86 C0 18.75, 0 14.63, 0 7.62 M0 22.86 C0 17.95, 0 13.04, 0 7.62 M0 7.62 C0 2.54, 2.54 0, 7.62 0 M0 7.62 C0 2.54, 2.54 0, 7.62 0" stroke="#000000" stroke-width="1" fill="none"></path></g><g transform="translate(109.88725653053385 214.96965888578416) rotate(0 8.329066258412809 9.66693468485596)"><text x="0" y="0" font-family="Virgil, Segoe UI Emoji" font-size="15.467095495769469px" fill="#000000" text-anchor="start" style="white-space: pre;" direction="ltr" dominant-baseline="text-before-edge">db</text></g><g stroke-linecap="round" transform="translate(60.97290004230641 249.0274344089803) rotate(0 15.101277592690082 3.9151460425492814)"><path d="M1.96 0 M1.96 0 C10.65 0, 19.34 0, 28.24 0 M1.96 0 C9.93 0, 17.9 0, 28.24 0 M28.24 0 C29.55 0, 30.2 0.65, 30.2 1.96 M28.24 0 C29.55 0, 30.2 0.65, 30.2 1.96 M30.2 1.96 C30.2 3.28, 30.2 4.61, 30.2 5.87 M30.2 1.96 C30.2 2.84, 30.2 3.73, 30.2 5.87 M30.2 5.87 C30.2 7.18, 29.55 7.83, 28.24 7.83 M30.2 5.87 C30.2 7.18, 29.55 7.83, 28.24 7.83 M28.24 7.83 C19.59 7.83, 10.94 7.83, 1.96 7.83 M28.24 7.83 C22.91 7.83, 17.57 7.83, 1.96 7.83 M1.96 7.83 C0.65 7.83, 0 7.18, 0 5.87 M1.96 7.83 C0.65 7.83, 0 7.18, 0 5.87 M0 5.87 C0 4.47, 0 3.06, 0 1.96 M0 5.87 C0 5.03, 0 4.19, 0 1.96 M0 1.96 C0 0.65, 0.65 0, 1.96 0 M0 1.96 C0 0.65, 0.65 0, 1.96 0" stroke="#000000" stroke-width="1" fill="none"></path></g><g stroke-linecap="round" transform="translate(59.57463359853884 252.9425804515297) rotate(0 21.673129878397788 15.241104237066793)"><path d="M7.62 0 L35.73 0 L39.06 0.48 L41.44 1.91 L42.87 4.29 L43.35 7.62 L43.35 22.86 L42.87 26.2 L41.44 28.58 L39.06 30.01 L35.73 30.48 L7.62 30.48 L4.29 30.01 L1.91 28.58 L0.48 26.2 L0 22.86 L0.48 4.29 L1.91 1.91 L4.29 0.48 L7.62 0" stroke="none" stroke-width="0" fill="#fff"></path><path d="M7.62 0 M7.62 0 C17.95 0, 28.29 0, 35.73 0 M7.62 0 C15.22 0, 22.83 0, 35.73 0 M35.73 0 C40.81 0, 43.35 2.54, 43.35 7.62 M35.73 0 C40.81 0, 43.35 2.54, 43.35 7.62 M43.35 7.62 C43.35 13.63, 43.35 19.65, 43.35 22.86 M43.35 7.62 C43.35 12.44, 43.35 17.27, 43.35 22.86 M43.35 22.86 C43.35 27.94, 40.81 30.48, 35.73 30.48 M43.35 22.86 C43.35 27.94, 40.81 30.48, 35.73 30.48 M35.73 30.48 C27.6 30.48, 19.47 30.48, 7.62 30.48 M35.73 30.48 C28.74 30.48, 21.76 30.48, 7.62 30.48 M7.62 30.48 C2.54 30.48, 0 27.94, 0 22.86 M7.62 30.48 C2.54 30.48, 0 27.94, 0 22.86 M0 22.86 C0 18.75, 0 14.63, 0 7.62 M0 22.86 C0 17.95, 0 13.04, 0 7.62 M0 7.62 C0 2.54, 2.54 0, 7.62 0 M0 7.62 C0 2.54, 2.54 0, 7.62 0" stroke="#000000" stroke-width="1" fill="none"></path></g><g transform="translate(110.66129688333362 257.54187828977956) rotate(0 13.317220739282874 9.66693468485596)"><text x="0" y="0" font-family="Virgil, Segoe UI Emoji" font-size="15.467095495769467px" fill="#000000" text-anchor="start" style="white-space: pre;" direction="ltr" dominant-baseline="text-before-edge">i18n</text></g><g stroke-linecap="round" transform="translate(60.19885968950658 293.14773451857627) rotate(0 15.101277592690082 3.9151460425492814)"><path d="M1.96 0 M1.96 0 C10.65 0, 19.34 0, 28.24 0 M1.96 0 C9.93 0, 17.9 0, 28.24 0 M28.24 0 C29.55 0, 30.2 0.65, 30.2 1.96 M28.24 0 C29.55 0, 30.2 0.65, 30.2 1.96 M30.2 1.96 C30.2 3.28, 30.2 4.61, 30.2 5.87 M30.2 1.96 C30.2 2.84, 30.2 3.73, 30.2 5.87 M30.2 5.87 C30.2 7.18, 29.55 7.83, 28.24 7.83 M30.2 5.87 C30.2 7.18, 29.55 7.83, 28.24 7.83 M28.24 7.83 C19.59 7.83, 10.94 7.83, 1.96 7.83 M28.24 7.83 C22.91 7.83, 17.57 7.83, 1.96 7.83 M1.96 7.83 C0.65 7.83, 0 7.18, 0 5.87 M1.96 7.83 C0.65 7.83, 0 7.18, 0 5.87 M0 5.87 C0 4.47, 0 3.06, 0 1.96 M0 5.87 C0 5.03, 0 4.19, 0 1.96 M0 1.96 C0 0.65, 0.65 0, 1.96 0 M0 1.96 C0 0.65, 0.65 0, 1.96 0" stroke="#000000" stroke-width="1" fill="none"></path></g><g stroke-linecap="round" transform="translate(58.80059324573901 297.06288056112567) rotate(0 21.673129878397788 15.241104237066793)"><path d="M7.62 0 L35.73 0 L39.06 0.48 L41.44 1.91 L42.87 4.29 L43.35 7.62 L43.35 22.86 L42.87 26.2 L41.44 28.58 L39.06 30.01 L35.73 30.48 L7.62 30.48 L4.29 30.01 L1.91 28.58 L0.48 26.2 L0 22.86 L0.48 4.29 L1.91 1.91 L4.29 0.48 L7.62 0" stroke="none" stroke-width="0" fill="#fff"></path><path d="M7.62 0 M7.62 0 C17.95 0, 28.29 0, 35.73 0 M7.62 0 C15.22 0, 22.83 0, 35.73 0 M35.73 0 C40.81 0, 43.35 2.54, 43.35 7.62 M35.73 0 C40.81 0, 43.35 2.54, 43.35 7.62 M43.35 7.62 C43.35 13.63, 43.35 19.65, 43.35 22.86 M43.35 7.62 C43.35 12.44, 43.35 17.27, 43.35 22.86 M43.35 22.86 C43.35 27.94, 40.81 30.48, 35.73 30.48 M43.35 22.86 C43.35 27.94, 40.81 30.48, 35.73 30.48 M35.73 30.48 C27.6 30.48, 19.47 30.48, 7.62 30.48 M35.73 30.48 C28.74 30.48, 21.76 30.48, 7.62 30.48 M7.62 30.48 C2.54 30.48, 0 27.94, 0 22.86 M7.62 30.48 C2.54 30.48, 0 27.94, 0 22.86 M0 22.86 C0 18.75, 0 14.63, 0 7.62 M0 22.86 C0 17.95, 0 13.04, 0 7.62 M0 7.62 C0 2.54, 2.54 0, 7.62 0 M0 7.62 C0 2.54, 2.54 0, 7.62 0" stroke="#000000" stroke-width="1" fill="none"></path></g><g transform="translate(109.88725653053385 301.66217839937553) rotate(0 39.719661011328895 9.66693468485596)"><text x="0" y="0" font-family="Virgil, Segoe UI Emoji" font-size="15.467095495769467px" fill="#000000" text-anchor="start" style="white-space: pre;" direction="ltr" dominant-baseline="text-before-edge">navigators</text></g><g stroke-linecap="round" transform="translate(60.5716594234037 337.85047001082785) rotate(0 15.101277592690082 3.9151460425492814)"><path d="M1.96 0 M1.96 0 C10.65 0, 19.34 0, 28.24 0 M1.96 0 C9.93 0, 17.9 0, 28.24 0 M28.24 0 C29.55 0, 30.2 0.65, 30.2 1.96 M28.24 0 C29.55 0, 30.2 0.65, 30.2 1.96 M30.2 1.96 C30.2 3.28, 30.2 4.61, 30.2 5.87 M30.2 1.96 C30.2 2.84, 30.2 3.73, 30.2 5.87 M30.2 5.87 C30.2 7.18, 29.55 7.83, 28.24 7.83 M30.2 5.87 C30.2 7.18, 29.55 7.83, 28.24 7.83 M28.24 7.83 C19.59 7.83, 10.94 7.83, 1.96 7.83 M28.24 7.83 C22.91 7.83, 17.57 7.83, 1.96 7.83 M1.96 7.83 C0.65 7.83, 0 7.18, 0 5.87 M1.96 7.83 C0.65 7.83, 0 7.18, 0 5.87 M0 5.87 C0 4.47, 0 3.06, 0 1.96 M0 5.87 C0 5.03, 0 4.19, 0 1.96 M0 1.96 C0 0.65, 0.65 0, 1.96 0 M0 1.96 C0 0.65, 0.65 0, 1.96 0" stroke="#000000" stroke-width="1" fill="none"></path></g><g stroke-linecap="round" transform="translate(59.173392979636134 341.765616053377) rotate(0 21.673129878397816 15.241104237066793)"><path d="M7.62 0 L35.73 0 L39.06 0.48 L41.44 1.91 L42.87 4.29 L43.35 7.62 L43.35 22.86 L42.87 26.2 L41.44 28.58 L39.06 30.01 L35.73 30.48 L7.62 30.48 L4.29 30.01 L1.91 28.58 L0.48 26.2 L0 22.86 L0.48 4.29 L1.91 1.91 L4.29 0.48 L7.62 0" stroke="none" stroke-width="0" fill="#fff"></path><path d="M7.62 0 M7.62 0 C17.95 0, 28.29 0, 35.73 0 M7.62 0 C15.22 0, 22.83 0, 35.73 0 M35.73 0 C40.81 0, 43.35 2.54, 43.35 7.62 M35.73 0 C40.81 0, 43.35 2.54, 43.35 7.62 M43.35 7.62 C43.35 13.63, 43.35 19.65, 43.35 22.86 M43.35 7.62 C43.35 12.44, 43.35 17.27, 43.35 22.86 M43.35 22.86 C43.35 27.94, 40.81 30.48, 35.73 30.48 M43.35 22.86 C43.35 27.94, 40.81 30.48, 35.73 30.48 M35.73 30.48 C27.6 30.48, 19.47 30.48, 7.62 30.48 M35.73 30.48 C28.74 30.48, 21.76 30.48, 7.62 30.48 M7.62 30.48 C2.54 30.48, 0 27.94, 0 22.86 M7.62 30.48 C2.54 30.48, 0 27.94, 0 22.86 M0 22.86 C0 18.75, 0 14.63, 0 7.62 M0 22.86 C0 17.95, 0 13.04, 0 7.62 M0 7.62 C0 2.54, 2.54 0, 7.62 0 M0 7.62 C0 2.54, 2.54 0, 7.62 0" stroke="#000000" stroke-width="1" fill="none"></path></g><g transform="translate(110.26005626443097 346.3649138916271) rotate(0 27.67848273072144 9.66693468485596)"><text x="0" y="0" font-family="Virgil, Segoe UI Emoji" font-size="15.467095495769467px" fill="#000000" text-anchor="start" style="white-space: pre;" direction="ltr" dominant-baseline="text-before-edge">screens</text></g><g stroke-linecap="round" transform="translate(59.79761907060393 468.77741105427367) rotate(0 15.101277592690082 3.9151460425492814)"><path d="M1.96 0 M1.96 0 C10.65 0, 19.34 0, 28.24 0 M1.96 0 C9.93 0, 17.9 0, 28.24 0 M28.24 0 C29.55 0, 30.2 0.65, 30.2 1.96 M28.24 0 C29.55 0, 30.2 0.65, 30.2 1.96 M30.2 1.96 C30.2 3.28, 30.2 4.61, 30.2 5.87 M30.2 1.96 C30.2 2.84, 30.2 3.73, 30.2 5.87 M30.2 5.87 C30.2 7.18, 29.55 7.83, 28.24 7.83 M30.2 5.87 C30.2 7.18, 29.55 7.83, 28.24 7.83 M28.24 7.83 C19.59 7.83, 10.94 7.83, 1.96 7.83 M28.24 7.83 C22.91 7.83, 17.57 7.83, 1.96 7.83 M1.96 7.83 C0.65 7.83, 0 7.18, 0 5.87 M1.96 7.83 C0.65 7.83, 0 7.18, 0 5.87 M0 5.87 C0 4.47, 0 3.06, 0 1.96 M0 5.87 C0 5.03, 0 4.19, 0 1.96 M0 1.96 C0 0.65, 0.65 0, 1.96 0 M0 1.96 C0 0.65, 0.65 0, 1.96 0" stroke="#000000" stroke-width="1" fill="none"></path></g><g stroke-linecap="round" transform="translate(58.39935262683625 472.69255709682307) rotate(0 21.673129878397788 15.241104237066793)"><path d="M7.62 0 L35.73 0 L39.06 0.48 L41.44 1.91 L42.87 4.29 L43.35 7.62 L43.35 22.86 L42.87 26.2 L41.44 28.58 L39.06 30.01 L35.73 30.48 L7.62 30.48 L4.29 30.01 L1.91 28.58 L0.48 26.2 L0 22.86 L0.48 4.29 L1.91 1.91 L4.29 0.48 L7.62 0" stroke="none" stroke-width="0" fill="#fff"></path><path d="M7.62 0 M7.62 0 C17.95 0, 28.29 0, 35.73 0 M7.62 0 C15.22 0, 22.83 0, 35.73 0 M35.73 0 C40.81 0, 43.35 2.54, 43.35 7.62 M35.73 0 C40.81 0, 43.35 2.54, 43.35 7.62 M43.35 7.62 C43.35 13.63, 43.35 19.65, 43.35 22.86 M43.35 7.62 C43.35 12.44, 43.35 17.27, 43.35 22.86 M43.35 22.86 C43.35 27.94, 40.81 30.48, 35.73 30.48 M43.35 22.86 C43.35 27.94, 40.81 30.48, 35.73 30.48 M35.73 30.48 C27.6 30.48, 19.47 30.48, 7.62 30.48 M35.73 30.48 C28.74 30.48, 21.76 30.48, 7.62 30.48 M7.62 30.48 C2.54 30.48, 0 27.94, 0 22.86 M7.62 30.48 C2.54 30.48, 0 27.94, 0 22.86 M0 22.86 C0 18.75, 0 14.63, 0 7.62 M0 22.86 C0 17.95, 0 13.04, 0 7.62 M0 7.62 C0 2.54, 2.54 0, 7.62 0 M0 7.62 C0 2.54, 2.54 0, 7.62 0" stroke="#000000" stroke-width="1" fill="none"></path></g><g transform="translate(109.48601591163114 477.2918549350727) rotate(0 20.238779014920368 9.66693468485596)"><text x="0" y="0" font-family="Virgil, Segoe UI Emoji" font-size="15.467095495769469px" fill="#000000" text-anchor="start" style="white-space: pre;" direction="ltr" dominant-baseline="text-before-edge">types</text></g><g stroke-linecap="round" transform="translate(59.631088738155285 427.85414741980276) rotate(0 15.101277592690082 3.9151460425492814)"><path d="M1.96 0 M1.96 0 C10.65 0, 19.34 0, 28.24 0 M1.96 0 C9.93 0, 17.9 0, 28.24 0 M28.24 0 C29.55 0, 30.2 0.65, 30.2 1.96 M28.24 0 C29.55 0, 30.2 0.65, 30.2 1.96 M30.2 1.96 C30.2 3.28, 30.2 4.61, 30.2 5.87 M30.2 1.96 C30.2 2.84, 30.2 3.73, 30.2 5.87 M30.2 5.87 C30.2 7.18, 29.55 7.83, 28.24 7.83 M30.2 5.87 C30.2 7.18, 29.55 7.83, 28.24 7.83 M28.24 7.83 C19.59 7.83, 10.94 7.83, 1.96 7.83 M28.24 7.83 C22.91 7.83, 17.57 7.83, 1.96 7.83 M1.96 7.83 C0.65 7.83, 0 7.18, 0 5.87 M1.96 7.83 C0.65 7.83, 0 7.18, 0 5.87 M0 5.87 C0 4.47, 0 3.06, 0 1.96 M0 5.87 C0 5.03, 0 4.19, 0 1.96 M0 1.96 C0 0.65, 0.65 0, 1.96 0 M0 1.96 C0 0.65, 0.65 0, 1.96 0" stroke="#000000" stroke-width="1" fill="none"></path></g><g stroke-linecap="round" transform="translate(58.23282229438766 431.7692934623519) rotate(0 21.673129878397788 15.241104237066793)"><path d="M7.62 0 L35.73 0 L39.06 0.48 L41.44 1.91 L42.87 4.29 L43.35 7.62 L43.35 22.86 L42.87 26.2 L41.44 28.58 L39.06 30.01 L35.73 30.48 L7.62 30.48 L4.29 30.01 L1.91 28.58 L0.48 26.2 L0 22.86 L0.48 4.29 L1.91 1.91 L4.29 0.48 L7.62 0" stroke="none" stroke-width="0" fill="#fff"></path><path d="M7.62 0 M7.62 0 C17.95 0, 28.29 0, 35.73 0 M7.62 0 C15.22 0, 22.83 0, 35.73 0 M35.73 0 C40.81 0, 43.35 2.54, 43.35 7.62 M35.73 0 C40.81 0, 43.35 2.54, 43.35 7.62 M43.35 7.62 C43.35 13.63, 43.35 19.65, 43.35 22.86 M43.35 7.62 C43.35 12.44, 43.35 17.27, 43.35 22.86 M43.35 22.86 C43.35 27.94, 40.81 30.48, 35.73 30.48 M43.35 22.86 C43.35 27.94, 40.81 30.48, 35.73 30.48 M35.73 30.48 C27.6 30.48, 19.47 30.48, 7.62 30.48 M35.73 30.48 C28.74 30.48, 21.76 30.48, 7.62 30.48 M7.62 30.48 C2.54 30.48, 0 27.94, 0 22.86 M7.62 30.48 C2.54 30.48, 0 27.94, 0 22.86 M0 22.86 C0 18.75, 0 14.63, 0 7.62 M0 22.86 C0 17.95, 0 13.04, 0 7.62 M0 7.62 C0 2.54, 2.54 0, 7.62 0 M0 7.62 C0 2.54, 2.54 0, 7.62 0" stroke="#000000" stroke-width="1" fill="none"></path></g><g transform="translate(109.31948557918255 436.3685913006018) rotate(0 22.659385764824094 9.66693468485596)"><text x="0" y="0" font-family="Virgil, Segoe UI Emoji" font-size="15.467095495769467px" fill="#000000" text-anchor="start" style="white-space: pre;" direction="ltr" dominant-baseline="text-before-edge">styles</text></g><g stroke-linecap="round" transform="translate(60.66549052824868 383.5430839018911) rotate(0 15.101277592690082 3.9151460425492814)"><path d="M1.96 0 M1.96 0 C10.65 0, 19.34 0, 28.24 0 M1.96 0 C9.93 0, 17.9 0, 28.24 0 M28.24 0 C29.55 0, 30.2 0.65, 30.2 1.96 M28.24 0 C29.55 0, 30.2 0.65, 30.2 1.96 M30.2 1.96 C30.2 3.28, 30.2 4.61, 30.2 5.87 M30.2 1.96 C30.2 2.84, 30.2 3.73, 30.2 5.87 M30.2 5.87 C30.2 7.18, 29.55 7.83, 28.24 7.83 M30.2 5.87 C30.2 7.18, 29.55 7.83, 28.24 7.83 M28.24 7.83 C19.59 7.83, 10.94 7.83, 1.96 7.83 M28.24 7.83 C22.91 7.83, 17.57 7.83, 1.96 7.83 M1.96 7.83 C0.65 7.83, 0 7.18, 0 5.87 M1.96 7.83 C0.65 7.83, 0 7.18, 0 5.87 M0 5.87 C0 4.47, 0 3.06, 0 1.96 M0 5.87 C0 5.03, 0 4.19, 0 1.96 M0 1.96 C0 0.65, 0.65 0, 1.96 0 M0 1.96 C0 0.65, 0.65 0, 1.96 0" stroke="#000000" stroke-width="1" fill="none"></path></g><g stroke-linecap="round" transform="translate(59.26722408448106 387.4582299444405) rotate(0 21.673129878397788 15.241104237066793)"><path d="M7.62 0 L35.73 0 L39.06 0.48 L41.44 1.91 L42.87 4.29 L43.35 7.62 L43.35 22.86 L42.87 26.2 L41.44 28.58 L39.06 30.01 L35.73 30.48 L7.62 30.48 L4.29 30.01 L1.91 28.58 L0.48 26.2 L0 22.86 L0.48 4.29 L1.91 1.91 L4.29 0.48 L7.62 0" stroke="none" stroke-width="0" fill="#fff"></path><path d="M7.62 0 M7.62 0 C17.95 0, 28.29 0, 35.73 0 M7.62 0 C15.22 0, 22.83 0, 35.73 0 M35.73 0 C40.81 0, 43.35 2.54, 43.35 7.62 M35.73 0 C40.81 0, 43.35 2.54, 43.35 7.62 M43.35 7.62 C43.35 13.63, 43.35 19.65, 43.35 22.86 M43.35 7.62 C43.35 12.44, 43.35 17.27, 43.35 22.86 M43.35 22.86 C43.35 27.94, 40.81 30.48, 35.73 30.48 M43.35 22.86 C43.35 27.94, 40.81 30.48, 35.73 30.48 M35.73 30.48 C27.6 30.48, 19.47 30.48, 7.62 30.48 M35.73 30.48 C28.74 30.48, 21.76 30.48, 7.62 30.48 M7.62 30.48 C2.54 30.48, 0 27.94, 0 22.86 M7.62 30.48 C2.54 30.48, 0 27.94, 0 22.86 M0 22.86 C0 18.75, 0 14.63, 0 7.62 M0 22.86 C0 17.95, 0 13.04, 0 7.62 M0 7.62 C0 2.54, 2.54 0, 7.62 0 M0 7.62 C0 2.54, 2.54 0, 7.62 0" stroke="#000000" stroke-width="1" fill="none"></path></g><g transform="translate(110.3538873692759 392.0575277826904) rotate(0 24.60825237320705 9.66693468485596)"><text x="0" y="0" font-family="Virgil, Segoe UI Emoji" font-size="15.467095495769467px" fill="#000" text-anchor="start" style="white-space: pre;" direction="ltr" dominant-baseline="text-before-edge">stores</text></g><g stroke-linecap="round" transform="translate(60.05798050789733 514.4176160331472) rotate(0 15.101277592690082 3.9151460425492814)"><path d="M1.96 0 M1.96 0 C10.65 0, 19.34 0, 28.24 0 M1.96 0 C9.93 0, 17.9 0, 28.24 0 M28.24 0 C29.55 0, 30.2 0.65, 30.2 1.96 M28.24 0 C29.55 0, 30.2 0.65, 30.2 1.96 M30.2 1.96 C30.2 3.28, 30.2 4.61, 30.2 5.87 M30.2 1.96 C30.2 2.84, 30.2 3.73, 30.2 5.87 M30.2 5.87 C30.2 7.18, 29.55 7.83, 28.24 7.83 M30.2 5.87 C30.2 7.18, 29.55 7.83, 28.24 7.83 M28.24 7.83 C19.59 7.83, 10.94 7.83, 1.96 7.83 M28.24 7.83 C22.91 7.83, 17.57 7.83, 1.96 7.83 M1.96 7.83 C0.65 7.83, 0 7.18, 0 5.87 M1.96 7.83 C0.65 7.83, 0 7.18, 0 5.87 M0 5.87 C0 4.47, 0 3.06, 0 1.96 M0 5.87 C0 5.03, 0 4.19, 0 1.96 M0 1.96 C0 0.65, 0.65 0, 1.96 0 M0 1.96 C0 0.65, 0.65 0, 1.96 0" stroke="#000000" stroke-width="1" fill="none"></path></g><g stroke-linecap="round" transform="translate(58.6597140641297 518.3327620756966) rotate(0 21.673129878397788 15.241104237066793)"><path d="M7.62 0 L35.73 0 L39.06 0.48 L41.44 1.91 L42.87 4.29 L43.35 7.62 L43.35 22.86 L42.87 26.2 L41.44 28.58 L39.06 30.01 L35.73 30.48 L7.62 30.48 L4.29 30.01 L1.91 28.58 L0.48 26.2 L0 22.86 L0.48 4.29 L1.91 1.91 L4.29 0.48 L7.62 0" stroke="none" stroke-width="0" fill="#fff"></path><path d="M7.62 0 M7.62 0 C17.95 0, 28.29 0, 35.73 0 M7.62 0 C15.22 0, 22.83 0, 35.73 0 M35.73 0 C40.81 0, 43.35 2.54, 43.35 7.62 M35.73 0 C40.81 0, 43.35 2.54, 43.35 7.62 M43.35 7.62 C43.35 13.63, 43.35 19.65, 43.35 22.86 M43.35 7.62 C43.35 12.44, 43.35 17.27, 43.35 22.86 M43.35 22.86 C43.35 27.94, 40.81 30.48, 35.73 30.48 M43.35 22.86 C43.35 27.94, 40.81 30.48, 35.73 30.48 M35.73 30.48 C27.6 30.48, 19.47 30.48, 7.62 30.48 M35.73 30.48 C28.74 30.48, 21.76 30.48, 7.62 30.48 M7.62 30.48 C2.54 30.48, 0 27.94, 0 22.86 M7.62 30.48 C2.54 30.48, 0 27.94, 0 22.86 M0 22.86 C0 18.75, 0 14.63, 0 7.62 M0 22.86 C0 17.95, 0 13.04, 0 7.62 M0 7.62 C0 2.54, 2.54 0, 7.62 0 M0 7.62 C0 2.54, 2.54 0, 7.62 0" stroke="#000000" stroke-width="1" fill="none"></path></g><g transform="translate(109.7463773489246 522.9320599139464) rotate(0 16.689062358505737 9.66693468485596)"><text x="0" y="0" font-family="Virgil, Segoe UI Emoji" font-size="15.467095495769467px" fill="#000000" text-anchor="start" style="white-space: pre;" direction="ltr" dominant-baseline="text-before-edge">utils</text></g><g stroke-linecap="round" transform="translate(67.19680700198947 558.039331976107) rotate(0 13.687250161522655 18.30669709103654)"><path d="M6.84 0 L23.52 0.43 L25.66 1.71 L26.95 3.85 L27.37 29.77 L26.95 32.76 L25.66 34.9 L23.52 36.19 L3.85 36.19 L1.71 34.9 L0.43 32.76 L0.43 3.85 L1.71 1.71 L3.85 0.43 L6.84 0" stroke="none" stroke-width="0" fill="#fff"></path><path d="M6.84 0 M6.84 0 C10.22 0, 13.61 0, 20.53 0 M6.84 0 C10.03 0, 13.22 0, 20.53 0 M20.53 0 C25.09 0, 27.37 2.28, 27.37 6.84 M20.53 0 C25.09 0, 27.37 2.28, 27.37 6.84 M27.37 6.84 C27.37 12.51, 27.37 18.18, 27.37 29.77 M27.37 6.84 C27.37 15.05, 27.37 23.26, 27.37 29.77 M27.37 29.77 C27.37 34.33, 25.09 36.61, 20.53 36.61 M27.37 29.77 C27.37 34.33, 25.09 36.61, 20.53 36.61 M20.53 36.61 C16.9 36.61, 13.27 36.61, 6.84 36.61 M20.53 36.61 C15.32 36.61, 10.11 36.61, 6.84 36.61 M6.84 36.61 C2.28 36.61, 0 34.33, 0 29.77 M6.84 36.61 C2.28 36.61, 0 34.33, 0 29.77 M0 29.77 C0 21.58, 0 13.4, 0 6.84 M0 29.77 C0 23.68, 0 17.6, 0 6.84 M0 6.84 C0 2.28, 2.28 0, 6.84 0 M0 6.84 C0 2.28, 2.28 0, 6.84 0" stroke="#000" stroke-width="1" fill="none"></path></g><g stroke-linecap="round" transform="translate(64.45935696968493 556.6706069599545) rotate(0 6.843625080761342 6.159262572685179)"><path d="M8.75 1.75 L13.25 7 L11.94 8.75 L7 11.88 L1.75 8.75 L0.44 7 L6.29 0.77 L7 0.44 L8.75 1.75" stroke="none" stroke-width="0" fill="#fff"></path><path d="M8.75 1.75 M8.75 1.75 C9.9 3.01, 11.05 4.28, 11.94 5.25 M8.75 1.75 C9.57 2.65, 10.38 3.54, 11.94 5.25 M11.94 5.25 C13.69 7, 13.69 7, 11.94 8.75 M11.94 5.25 C13.69 7, 13.69 7, 11.94 8.75 M11.94 8.75 C11.15 9.2, 10.36 9.65, 8.75 10.57 M11.94 8.75 C11.24 9.15, 10.55 9.54, 8.75 10.57 M8.75 10.57 C7 12.32, 7 12.32, 5.25 10.57 M8.75 10.57 C7 12.32, 7 12.32, 5.25 10.57 M5.25 10.57 C3.98 9.91, 2.72 9.25, 1.75 8.75 M5.25 10.57 C4.09 9.97, 2.93 9.36, 1.75 8.75 M1.75 8.75 C0 7, 0 7, 1.75 5.25 M1.75 8.75 C0 7, 0 7, 1.75 5.25 M1.75 5.25 C3.11 3.89, 4.48 2.52, 5.25 1.75 M1.75 5.25 C2.48 4.52, 3.21 3.79, 5.25 1.75 M5.25 1.75 C7 0, 7 0, 8.75 1.75 M5.25 1.75 C7 0, 7 0, 8.75 1.75" stroke="#000" stroke-width="1" fill="none"></path></g><g transform="translate(103.17472171227777 563.1231677503863) rotate(0 33.31626081920217 9.66693468485596)"><text x="0" y="0" font-family="Virgil, Segoe UI Emoji" font-size="15.467095495769469px" fill="#000" text-anchor="start" style="white-space: pre;" direction="ltr" dominant-baseline="text-before-edge">index.tsx</text></g><g stroke-linecap="round" transform="translate(11.398266443767625 10) rotate(0 15.101277592690096 3.9151460425492814)"><path d="M1.96 0 M1.96 0 C10.65 0, 19.34 0, 28.24 0 M1.96 0 C9.93 0, 17.9 0, 28.24 0 M28.24 0 C29.55 0, 30.2 0.65, 30.2 1.96 M28.24 0 C29.55 0, 30.2 0.65, 30.2 1.96 M30.2 1.96 C30.2 3.28, 30.2 4.61, 30.2 5.87 M30.2 1.96 C30.2 2.84, 30.2 3.73, 30.2 5.87 M30.2 5.87 C30.2 7.18, 29.55 7.83, 28.24 7.83 M30.2 5.87 C30.2 7.18, 29.55 7.83, 28.24 7.83 M28.24 7.83 C19.59 7.83, 10.94 7.83, 1.96 7.83 M28.24 7.83 C22.91 7.83, 17.57 7.83, 1.96 7.83 M1.96 7.83 C0.65 7.83, 0 7.18, 0 5.87 M1.96 7.83 C0.65 7.83, 0 7.18, 0 5.87 M0 5.87 C0 4.47, 0 3.06, 0 1.96 M0 5.87 C0 5.03, 0 4.19, 0 1.96 M0 1.96 C0 0.65, 0.65 0, 1.96 0 M0 1.96 C0 0.65, 0.65 0, 1.96 0" stroke="#000000" stroke-width="1" fill="none"></path></g><g stroke-linecap="round" transform="translate(10 13.915146042549168) rotate(0 21.673129878397802 15.241104237066793)"><path d="M7.62 0 L35.73 0 L39.06 0.48 L41.44 1.91 L42.87 4.29 L43.35 7.62 L43.35 22.86 L42.87 26.2 L41.44 28.58 L39.06 30.01 L35.73 30.48 L7.62 30.48 L4.29 30.01 L1.91 28.58 L0.48 26.2 L0 22.86 L0.48 4.29 L1.91 1.91 L4.29 0.48 L7.62 0" stroke="none" stroke-width="0" fill="#fff"></path><path d="M7.62 0 M7.62 0 C17.95 0, 28.29 0, 35.73 0 M7.62 0 C15.22 0, 22.83 0, 35.73 0 M35.73 0 C40.81 0, 43.35 2.54, 43.35 7.62 M35.73 0 C40.81 0, 43.35 2.54, 43.35 7.62 M43.35 7.62 C43.35 13.63, 43.35 19.65, 43.35 22.86 M43.35 7.62 C43.35 12.44, 43.35 17.27, 43.35 22.86 M43.35 22.86 C43.35 27.94, 40.81 30.48, 35.73 30.48 M43.35 22.86 C43.35 27.94, 40.81 30.48, 35.73 30.48 M35.73 30.48 C27.6 30.48, 19.47 30.48, 7.62 30.48 M35.73 30.48 C28.74 30.48, 21.76 30.48, 7.62 30.48 M7.62 30.48 C2.54 30.48, 0 27.94, 0 22.86 M7.62 30.48 C2.54 30.48, 0 27.94, 0 22.86 M0 22.86 C0 18.75, 0 14.63, 0 7.62 M0 22.86 C0 17.95, 0 13.04, 0 7.62 M0 7.62 C0 2.54, 2.54 0, 7.62 0 M0 7.62 C0 2.54, 2.54 0, 7.62 0" stroke="#000000" stroke-width="1" fill="none"></path></g><g transform="translate(61.08666328479487 18.514443880799263) rotate(0 17.168548657405978 9.66693468485596)"><text x="0" y="0" font-family="Virgil, Segoe UI Emoji" font-size="15.467095495769469px" fill="#000000" text-anchor="start" style="white-space: pre;" direction="ltr" dominant-baseline="text-before-edge">test</text></g><g stroke-linecap="round"><g stroke-opacity="0.2" fill-opacity="0.2" transform="translate(13.501515609679359 142.98529498173775) rotate(0 19.86276758228017 -0.0037178181702302027)"><path d="M0 0 C6.62 0, 33.1 -0.01, 39.73 -0.01 M0 0 C6.62 0, 33.1 -0.01, 39.73 -0.01" stroke="#495057" stroke-width="1" fill="none"></path></g></g><mask></mask><g stroke-linecap="round"><g stroke-opacity="0.2" fill-opacity="0.2" transform="translate(13.925822585479295 182.85252985591796) rotate(0 19.86276758228017 -0.0037178181702302027)"><path d="M0 0 C6.62 0, 33.1 -0.01, 39.73 -0.01 M0 0 C6.62 0, 33.1 -0.01, 39.73 -0.01" stroke="#495057" stroke-width="1" fill="none"></path></g></g><mask></mask><g stroke-linecap="round"><g stroke-opacity="0.2" fill-opacity="0.2" transform="translate(13.698061022499246 224.90276738654916) rotate(0 19.86276758228017 -0.0037178181702302027)"><path d="M0 0 C6.62 0, 33.1 -0.01, 39.73 -0.01 M0 0 C6.62 0, 33.1 -0.01, 39.73 -0.01" stroke="#495057" stroke-width="1" fill="none"></path></g></g><mask></mask><g stroke-linecap="round"><g stroke-opacity="0.2" fill-opacity="0.2" transform="translate(14.930410634733107 267.6769675744338) rotate(0 19.86276758228017 -0.0037178181702302027)"><path d="M0 0 C6.62 0, 33.1 -0.01, 39.73 -0.01 M0 0 C6.62 0, 33.1 -0.01, 39.73 -0.01" stroke="#495057" stroke-width="1" fill="none"></path></g></g><mask></mask><g stroke-linecap="round"><g stroke-opacity="0.2" fill-opacity="0.2" transform="translate(11.50180132932465 311.46794167227904) rotate(0 19.862767582280156 -0.0037178181702302027)"><path d="M0 0 C6.62 0, 33.1 -0.01, 39.73 -0.01 M0 0 C6.62 0, 33.1 -0.01, 39.73 -0.01" stroke="#495057" stroke-width="1" fill="none"></path></g></g><mask></mask><g stroke-linecap="round"><g stroke-opacity="0.2" fill-opacity="0.2" transform="translate(13.698061022499246 356.7190269453383) rotate(0 19.86276758228017 -0.0037178181702302027)"><path d="M0 0 C6.62 0, 33.1 -0.01, 39.73 -0.01 M0 0 C6.62 0, 33.1 -0.01, 39.73 -0.01" stroke="#495057" stroke-width="1" fill="none"></path></g></g><mask></mask><g stroke-linecap="round"><g stroke-opacity="0.2" fill-opacity="0.2" transform="translate(13.14899609920559 403.2553256596518) rotate(0 19.862767582280142 -0.0037178181702302027)"><path d="M0 0 C6.62 0, 33.1 -0.01, 39.73 -0.01 M0 0 C6.62 0, 33.1 -0.01, 39.73 -0.01" stroke="#495057" stroke-width="1" fill="none"></path></g></g><mask></mask><g stroke-linecap="round"><g stroke-opacity="0.2" fill-opacity="0.2" transform="translate(13.10391358064868 446.0823896765569) rotate(0 19.862767582280142 -0.0037178181702302027)"><path d="M0 0 C6.62 0, 33.1 -0.01, 39.73 -0.01 M0 0 C6.62 0, 33.1 -0.01, 39.73 -0.01" stroke="#495057" stroke-width="1" fill="none"></path></g></g><mask></mask><g stroke-linecap="round"><g stroke-opacity="0.2" fill-opacity="0.2" transform="translate(12.091544220931354 488.58815033314795) rotate(0 19.862767582280156 -0.0037178181702302027)"><path d="M0 0 C6.62 0, 33.1 -0.01, 39.73 -0.01 M0 0 C6.62 0, 33.1 -0.01, 39.73 -0.01" stroke="#495057" stroke-width="1" fill="none"></path></g></g><mask></mask><g stroke-linecap="round"><g stroke-opacity="0.2" fill-opacity="0.2" transform="translate(12.506389378578433 533.3837124802474) rotate(0 19.86276758228017 -0.0037178181702302027)"><path d="M0 0 C6.62 0, 33.1 -0.01, 39.73 -0.01 M0 0 C6.62 0, 33.1 -0.01, 39.73 -0.01" stroke="#495057" stroke-width="1" fill="none"></path></g></g><mask></mask><g stroke-linecap="round"><g stroke-opacity="0.2" fill-opacity="0.2" transform="translate(13.470299459519168 571.8182571108027) rotate(0 19.862767582280156 -0.0037178181702302027)"><path d="M0 0 C6.62 0, 33.1 -0.01, 39.73 -0.01 M0 0 C6.62 0, 33.1 -0.01, 39.73 -0.01" stroke="#495057" stroke-width="1" fill="none"></path></g></g><mask></mask></svg>